<?xml version="1.0" encoding="UTF-8"?>
<svg width="504px" height="390px" viewBox="0 0 504 390" version="1.1" xmlns="http://www.w3.org/2000/svg" xmlns:xlink="http://www.w3.org/1999/xlink">
    <!-- Generator: Sketch 50 (54983) - http://www.bohemiancoding.com/sketch -->
    <title>LA</title>
    <desc>Created with Sketch.</desc>
    <defs>
        <rect id="path-1" x="0" y="0" width="504" height="390"></rect>
    </defs>
    <g id="Home-page-updated-Map" stroke="none" stroke-width="1" fill="none" fill-rule="evenodd">
        <g id="1.1-Web-home" transform="translate(-730.000000, -4352.000000)">
            <g id="1.7-m-driven" transform="translate(206.000000, 4032.000000)">
                <g id="Group-10" transform="translate(0.000000, 320.000000)">
                    <g id="LA" transform="translate(524.000000, 0.000000)">
                        <mask id="mask-2" fill="white">
                            <use xlink:href="#path-1"></use>
                        </mask>
                        <use id="Rectangle-21" fill="#D8EBFF" xlink:href="#path-1"></use>
                        <g mask="url(#mask-2)">
                            <g transform="translate(-272.000000, -156.000000)">
                                <g>
                                    <g id="Group-3" transform="translate(573.651187, 383.819620)">
                                        <g id="Group-3-Copy" transform="translate(0.000000, 119.461431)" fill="#E3E4E6">
                                            <polygon id="Fill-1" points="138.500805 23.9636175 151.005484 2.96820955 168.688613 1.54111589 196.317595 0.0486591729 183.883463 6.73021724 188.427752 56.7620146 193.248112 63.654187 200.451408 66.3558605 202.841609 66.7553014 214.861633 65.7276488 215.355656 66.039939 215.846047 66.3522292 222.133947 74.5153501 223.528836 85.256681 223.398065 89.5887999 219.729216 99.1427017 204.287354 115.254698 190.113243 117.778439 189.339515 117.974528 88.5115319 131.49742 86.517276 131.787923 75.049396 133.316692 32.4362507 139.010542 14.3135858 141.476182 0.971323235 143.309979 0.230288231 115.617826 1.41449123 68.374853 0.640763503 49.2670494 0.230288231 42.718949"></polygon>
                                        </g>
                                        <polyline id="Fill-1" fill="#E3E4E6" points="135.546115 10.7391521 219.424739 6.94809414 288.021332 2.96820955 305.704461 1.54111589 333.333443 0.0486591729 320.899311 6.73021724 325.4436 56.7620146 325.610696 57.012573 330.26396 63.654187 337.467256 66.3558605 339.857457 66.7553014 351.877481 65.7276488 352.371504 66.039939 352.861895 66.3522292 359.149795 74.5153501 360.544684 85.256681 360.413913 89.5887999 356.745063 99.1427017 341.303202 115.254698 327.129091 117.778439 326.355363 117.974528 225.52738 131.49742 223.533124 131.787923 212.065244 133.316692 169.452099 139.010542 151.329434 141.476182 137.987171 143.309979 137.246136 115.617826 138.430339 68.374853 137.656611 49.2670494 135.55338 10.7682023"></polyline>
                                        <polyline id="Stroke-2" stroke="#FFFFFF" stroke-width="0.8" stroke-linejoin="round" points="135.546115 10.7391521 219.424739 6.94809414 288.021332 2.96820955 305.704461 1.54111589 333.333443 0.0486591729 320.899311 6.73021724 325.4436 56.7620146 325.610696 57.012573 330.26396 63.654187 337.467256 66.3558605 339.857457 66.7553014 351.877481 65.7276488 352.371504 66.039939 352.861895 66.3522292 359.149795 74.5153501 360.544684 85.256681 360.413913 89.5887999 356.745063 99.1427017 341.303202 115.254698 327.129091 117.778439 326.355363 117.974528 225.52738 131.49742 223.533124 131.787923 212.065244 133.316692 169.452099 139.010542 151.329434 141.476182 137.987171 143.309979 137.246136 115.617826 138.430339 68.374853 137.656611 49.2670494 135.55338 10.7682023"></polyline>
                                    </g>
                                    <g id="Group-6" transform="translate(491.184659, 276.412730)">
                                        <polyline id="Fill-4" fill="#E3E4E6" points="435.69785 0.0229948339 428.120404 19.8933675 426.064395 27.2721317 425.79922 40.2539632 426.394954 45.5883159 427.459284 65.309806 426.90714 84.551967 415.79888 107.45446 388.169899 108.946917 370.486769 110.377641 301.890176 114.353895 218.011552 118.144953 188.78426 118.980147 145.717049 120.606962 116.028426 121.685452 61.021107 122.553329 60.952089 119.731823 44.0063621 110.991328 24.3180791 111.503339 24.0928626 106.71731 36.7812708 85.8338094 28.2194105 78.7019724 20.155206 77.8304648 13.6784148 68.5198589 0.626754147 51.9212709 2.93703975 42.9774244 15.5491649 24.8064915 34.9395809 24.2545367 40.2249041 24.141967 42.0084736 26.5059313 60.5634089 28.463192 100.473956 27.1704558 117.172671 23.5428055 150.784421 20.9282828 249.055107 16.6869459 317.56452 13.7710268 325.890266 8.45483062 342.814198 4.98332545 435.69785 0.0157322708"></polyline>
                                        <polyline id="Stroke-5" stroke="#FFFFFF" stroke-width="0.8" stroke-linejoin="round" points="435.69785 0.0229948339 428.120404 19.8933675 426.064395 27.2721317 425.79922 40.2539632 426.394954 45.5883159 427.459284 65.309806 426.90714 84.551967 415.79888 107.45446 388.169899 108.946917 370.486769 110.377641 301.890176 114.353895 218.011552 118.144953 188.78426 118.980147 145.717049 120.606962 116.028426 121.685452 61.021107 122.553329 60.952089 119.731823 44.0063621 110.991328 24.3180791 111.503339 24.0928626 106.71731 36.7812708 85.8338094 28.2194105 78.7019724 20.155206 77.8304648 13.6784148 68.5198589 0.626754147 51.9212709 2.93703975 42.9774244 15.5491649 24.8064915 34.9395809 24.2545367 40.2249041 24.141967 42.0084736 26.5059313 60.5634089 28.463192 100.473956 27.1704558 117.172671 23.5428055 150.784421 20.9282828 249.055107 16.6869459 317.56452 13.7710268 325.890266 8.45483062 342.814198 4.98332545 435.69785 0.0157322708"></polyline>
                                    </g>
                                    <polyline id="Stroke-8" stroke="#FFFFFF" stroke-width="0.8" stroke-linejoin="round" points="515.502738 387.916795 535.191021 387.401153 552.136748 396.145279 552.205766 398.966785 607.213085 398.098909 636.901708 397.020418 679.968919 395.393604 709.196211 394.558409 711.299443 433.060888 712.073171 452.157797 710.888968 499.408033 711.630003 527.103818 698.858047 528.785101 672.838273 532.234818 646.382597 535.847944 609.03298 540.884531 573.125475 545.576147 572.351747 545.775867 559.543466 520.930639 551.922429 481.193525 551.584605 479.87537 551.646357 479.857213 549.550391 471.294651 548.7585 467.968397 543.731086 454.812264 541.834909 450.18238 537.352373 443.282945 536.960061 442.727359 525.201579 426.571788 521.808801 422.076261 521.213067 421.39358 516.781387 416.051965 510.940288 411.008115 507.612895 408.872921 504.300033 407.689123 515.528166 388.000315"></polyline>
                                    <polygon id="Fill-7" stroke="#FFFFFF" fill-opacity="0.578945879" fill="#99CA41" points="515.501649 387.917885 504.302575 407.690213 507.611805 408.870379 510.94283 411.009204 516.780297 416.053054 521.211977 421.394669 521.811344 422.07735 525.200489 426.569246 536.962604 442.728449 537.351284 443.284035 541.837451 450.18347 543.729997 454.809722 548.761043 467.969487 549.552934 471.295741 551.645268 479.858303 551.924972 481.194614 559.542376 520.931728 572.35429 545.776957 573.124385 545.577236 609.03189 540.881989 646.38514 535.849033 672.837184 532.235908 698.856957 528.78619 711.632546 527.104907 710.891511 499.409123 712.072081 452.158887 711.301986 433.061977 709.195122 394.559499 679.967829 395.391062 636.904251 397.021508 607.215628 398.096367 552.208309 398.967875 552.135658 396.142738 535.189932 387.402243"></polygon>
                                    <g id="Group-12" transform="translate(433.064267, 315.591049)">
                                        <polyline id="Fill-10" fill-opacity="0.578945879" fill="#99CA41" points="43.6797981 0.707432528 58.7475099 12.7414996 71.7991705 29.3437189 78.2759618 38.6506936 86.3401662 39.5222011 94.9056591 46.6540381 82.2136184 67.5375384 82.4388349 72.3271987 71.2107016 92.0087448 69.5143126 88.8604237 66.1542274 84.9459022 64.2616821 83.2973003 32.1247376 59.0621272 6.4464217 40.1722005 0.169419309 35.5168976 2.01474177 28.686457 6.80967415 17.9487574 17.6781876 2.38145333 23.7045457 1.27391245 25.291959 1.23396835 43.6906957 0.75827047"></polyline>
                                        <polyline id="Stroke-11" stroke="#FFFFFF" stroke-width="0.8" stroke-linejoin="round" points="43.6797981 0.707432528 58.7475099 12.7414996 71.7991705 29.3437189 78.2759618 38.6506936 86.3401662 39.5222011 94.9056591 46.6540381 82.2136184 67.5375384 82.4388349 72.3271987 71.2107016 92.0087448 69.5143126 88.8604237 66.1542274 84.9459022 64.2616821 83.2973003 32.1247376 59.0621272 6.4464217 40.1722005 0.169419309 35.5168976 2.01474177 28.686457 6.80967415 17.9487574 17.6781876 2.38145333 23.7045457 1.27391245 25.291959 1.23396835 43.6906957 0.75827047"></polyline>
                                    </g>
                                    <g id="Group-15" transform="translate(319.662159, 171.131746)">
                                        <polygon id="Fill-13" fill-opacity="0.578945879" fill="#99CA41" points="170.318462 39.418007 171.818695 61.5179866 173.478759 80.1972989 174.299709 88.2442189 170.521884 108.84811 166.326318 123.021002 164.644459 128.649489 156.591152 135.479929 154.317192 140.385791 154.382577 141.54417 155.6249 143.882715 157.06338 145.106457 138.664643 145.582155 137.07723 145.622099 131.050872 146.726008 120.182359 162.296944 115.391059 173.034643 113.545736 179.865084 104.03942 183.739661 93.6322368 186.187145 88.3868714 185.533514 85.6697431 184.799996 74.8920428 181.208658 72.8796242 180.260894 70.4494653 174.933804 71.1287474 173.699168 73.5552737 170.706992 75.0119161 169.96621 75.3751685 168.168726 75.1717472 163.967333 72.3129504 156.919016 70.7872901 153.527399 69.9481769 151.624607 68.1791374 147.702823 65.6218402 143.04752 62.6068448 138.704507 62.0147433 137.97462 59.8606563 135.563449 58.0589241 134.060098 57.593961 133.664289 57.1253653 133.417361 54.3646466 131.888592 50.8302003 131.441944 37.4734076 132.041106 27.171568 133.268479 22.0242807 135.033282 0.192808307 131.376581 0.708626791 126.517927 11.9294951 117.799219 21.0144389 110.925203 37.2590886 110.776321 41.8360695 96.4327588 41.1822151 90.4266191 7.39973698 8.79177832 5.6706553 4.33982712 169.363108 0.766646067"></polygon>
                                        <polyline id="Stroke-14" stroke="#FFFFFF" stroke-width="0.8" stroke-linejoin="round" points="169.359476 0.75212094 170.318462 39.418007 171.818695 61.5179866 173.478759 80.1972989 174.299709 88.2442189 170.521884 108.84811 166.326318 123.021002 164.644459 128.649489 156.591152 135.479929 154.317192 140.385791 154.382577 141.54417 155.6249 143.882715 157.06338 145.106457 138.664643 145.582155 137.07723 145.622099 131.050872 146.726008 120.182359 162.296944 115.391059 173.034643 113.545736 179.865084 104.03942 183.739661 93.6322368 186.187145 88.3868714 185.533514 85.6697431 184.799996 74.8920428 181.208658 72.8796242 180.260894 70.4494653 174.933804 71.1287474 173.699168 73.5552737 170.706992 75.0119161 169.96621 75.3751685 168.168726 75.1717472 163.967333 72.3129504 156.919016 70.7872901 153.527399 69.9481769 151.624607 68.1791374 147.702823 65.6218402 143.04752 62.6068448 138.704507 62.3598331 138.39948 62.0147433 137.97462 61.9348278 137.920151 59.8606563 135.563449 59.4901388 135.291103 58.0589241 134.060098 57.593961 133.664289 57.1253653 133.417361 54.3646466 131.888592 50.8302003 131.441944 37.4734076 132.041106 27.171568 133.268479 22.0242807 135.033282 0.192808307 131.376581 0.708626791 126.517927 11.9294951 117.799219 21.0144389 110.925203 37.2590886 110.776321 41.8360695 96.4327588 41.1822151 90.4266191 7.39973698 8.79177832 5.6706553 4.33982712 169.363108 0.766646067"></polyline>
                                    </g>
                                    <polygon id="Fill-16" fill="#E3E4E6" points="252.162509 162.362646 260.150431 163.136109 274.215566 165.765157 276.990814 169.425489 278.698101 173.576044 314.42398 180.094194 327.076063 179.970731 360.858541 261.605571 361.512395 267.60808 356.935414 281.955273 340.690765 282.111418 331.602188 288.978172 320.384952 297.696879 319.869134 302.555533 299.123786 293.909452 271.491172 265.603612 254.10591 252.146083 250.066543 249.055862 248.272075 248.747203 251.279806 245.268436 252.093491 244.059219 252.533027 235.678221"></polygon>
                                    <polyline id="Stroke-17" stroke="#FFFFFF" stroke-width="0.8" stroke-linejoin="round" points="252.162509 162.362646 260.150431 163.136109 274.215566 165.765157 276.990814 169.425489 278.698101 173.576044 314.42398 180.094194 327.076063 179.970731 360.858541 261.605571 361.512395 267.60808 356.935414 281.955273 340.690765 282.111418 331.602188 288.978172 320.384952 297.696879 319.869134 302.555533 299.123786 293.909452 271.491172 265.603612 254.10591 252.146083 250.066543 249.055862 248.272075 248.747203 251.279806 245.268436 252.093491 244.059219 252.533027 235.678221 252.162509 162.362646"></polyline>
                                    <g id="Group-20" transform="translate(90.813113, 128.322145)">
                                        <polyline id="Fill-18" fill="#E3E4E6" points="0.624352222 21.6073561 20.9337969 18.6805431 28.6710741 19.6028887 36.9096398 24.6213198 45.1264103 20.9755131 52.2316282 14.1922791 75.9084231 0.262683066 79.0142316 2.47413354 88.0228924 7.41630774 115.052507 19.6392015 148.845883 34.541981 154.868609 34.5456123 157.251545 33.9319257 161.31634 33.910138 161.686857 107.229344 161.247322 115.606711 160.430004 116.812296 157.425906 120.294695 146.016147 114.201405 138.264339 112.963138 130.919375 113.780176 128.990504 114.27403 128.707167 114.346656 121.04254 115.94442 103.795314 115.01118 96.8971499 110.882413 85.80342 106.528507 81.6659745 106.005602 70.99725 104.898061 62.3009862 104.829067 52.3224414 105.279346 41.1233682 106.684652 27.6575998 107.774036 5.48830257 90.3620411 3.29789028 77.5181983 0.707900286 33.6668421 0.620719697 21.5964622"></polyline>
                                        <polyline id="Stroke-19" stroke="#FFFFFF" stroke-width="0.8" stroke-linejoin="round" points="0.624352222 21.6073561 20.9337969 18.6805431 28.6710741 19.6028887 36.9096398 24.6213198 45.1264103 20.9755131 52.2316282 14.1922791 75.9084231 0.262683066 79.0142316 2.47413354 88.0228924 7.41630774 115.052507 19.6392015 148.845883 34.541981 154.868609 34.5456123 157.251545 33.9319257 161.31634 33.910138 161.686857 107.229344 161.247322 115.606711 160.430004 116.812296 157.425906 120.294695 146.016147 114.201405 138.264339 112.963138 130.919375 113.780176 128.990504 114.27403 128.707167 114.346656 121.04254 115.94442 103.795314 115.01118 96.8971499 110.882413 85.80342 106.528507 81.6659745 106.005602 70.99725 104.898061 62.3009862 104.829067 52.3224414 105.279346 41.1233682 106.684652 27.6575998 107.774036 5.48830257 90.3620411 3.29789028 77.5181983 0.707900286 33.6668421 0.620719697 21.5964622"></polyline>
                                    </g>
                                    <polygon id="Fill-21" fill="#E3E4E6" points="0.627258241 13.9725041 4.6339328 27.538972 8.44445103 34.0462285 10.1008822 35.2627079 12.8434382 36.9657789 32.3428299 54.9696729 63.5752758 88.5953401 83.0565049 116.857605 84.3569487 117.340565 85.0289657 117.678274 89.8711209 120.626875 91.3313958 121.527433 92.2794847 122.900057 93.3111217 125.34391 93.361977 125.550893 93.9976688 129.138599 94.0121989 129.429101 94.033994 130.195302 94.1466023 132.980495 94.0594217 135.787475 93.5436032 140.464566 92.68996 145.395846 92.5918818 145.711768 91.4730642 150.0802 111.786141 147.157018 119.519786 148.075732 127.761984 153.097795 135.978755 149.451988 143.083973 142.668754 166.757135 128.735527 169.866576 130.950608 178.875237 135.889151 205.904852 148.112045 239.694595 163.014824 245.720953 163.018456 248.100257 162.4084 248.005811 133.550606 237.166358 116.628834 217.913978 103.047841 203.194989 102.93164 193.761323 88.490033 171.177918 61.8981581 152.36144 45.1506875 152.401398 16.3691499 149.789613 16.3037868 0.619993192 13.9543477"></polygon>
                                    <polyline id="Stroke-22" stroke="#FFFFFF" stroke-width="0.8" stroke-linejoin="round" points="0.620719697 13.9518058 149.79034 16.3012449 152.398492 16.366608 152.358534 45.1517769 171.178644 61.8956162 193.762049 88.4874911 203.195715 102.932729 217.911072 103.04893 237.163452 116.626292 248.006538 133.551695 248.100983 162.40949 245.72168 163.019545 239.695322 163.015914 205.905579 148.109503 178.872331 135.890241 169.867303 130.951698 166.757862 128.736616 143.084699 142.669843 135.979481 149.449446 127.762711 153.095253 119.520513 148.076821 111.786868 147.158107 91.4737908 150.081289 92.5889758 145.712857 92.6906865 145.393304 93.5443297 140.465655 94.0601482 135.788565 94.1473288 132.981584 94.0347205 130.196391 94.0092929 129.430191 93.9983953 129.139688 93.3627035 125.548351 93.3118482 125.344999 92.2765787 122.901146 91.3357548 121.528522 89.8718474 120.627964 85.0296922 117.675732 84.3576752 117.341654 83.0535989 116.858694 63.5760024 88.5964295 32.3399239 54.9707623 12.8441647 36.9668683 10.1016087 35.2637972 8.44154501 34.0436866 4.6346593 27.5364301 0.627984746 13.9735935"></polyline>
                                    <polygon id="Fill-24" fill="#E3E4E6" points="238.859841 16.2565802 302.734152 15.7082567 375.046818 14.9529501 432.542417 13.6928954 440.4032 13.9107723 489.751045 11.5068639 487.974741 25.9375768 487.923886 30.7817064 491.058754 49.8531972 493.739557 171.904202 489.039071 171.944146 325.342985 175.517327 327.075699 179.969278 314.423616 180.092742 278.697738 173.574591 276.990451 169.427668 274.215202 165.763705 260.150067 163.134657 252.162146 162.361194 248.097351 162.386613 247.999273 133.528818 237.156187 116.607046 217.90744 103.029684 203.192083 102.909852 193.758417 88.4682453 171.175011 61.8763704 152.354902 45.1288999 152.391227 16.3437309"></polygon>
                                    <polyline id="Stroke-25" stroke="#FFFFFF" stroke-width="0.8" stroke-linejoin="round" points="238.859841 16.2565802 302.734152 15.7082567 375.046818 14.9529501 432.542417 13.6928954 440.4032 13.9107723 489.751045 11.5068639 487.974741 25.9375768 487.923886 30.7817064 491.058754 49.8531972 493.739557 171.904202 489.039071 171.944146 325.342985 175.517327 327.075699 179.969278 314.423616 180.092742 278.697738 173.574591 276.990451 169.427668 274.215202 165.763705 260.150067 163.134657 252.162146 162.361194 248.097351 162.386613 247.999273 133.528818 237.156187 116.607046 217.90744 103.029684 203.192083 102.909852 193.758417 88.4682453 171.175011 61.8763704 152.354902 45.1288999 152.391227 16.3437309 238.859841 16.2565802"></polyline>
                                    <polygon id="Fill-26" fill="#E3E4E6" points="739.548133 3.67128454 523.6672 10.9919482 489.753951 11.5075901 489.761216 11.5475342 487.984912 25.9782472 487.934057 30.8223768 491.068925 49.8974988 493.749728 171.944872 489.049242 171.984816 490.008228 210.665227 491.512093 232.757944 493.168525 251.440888 493.989475 259.480545 490.215282 280.080806 486.016084 294.257329 484.334225 299.882184 476.28455 306.716256 474.006958 311.618486 474.072343 312.780496 475.314666 315.11541 476.753146 316.342783 491.820858 328.37685 494.134776 319.429373 506.743269 301.262071 526.133685 300.710116 531.419008 300.593915 533.20621 302.957879 551.761145 304.918772 591.66806 303.626035 608.370407 299.998385 641.978524 297.383862 740.249211 293.142525 808.762256 290.226606 817.080737 284.914041 834.008301 281.438905 926.895586 276.471312 941.60731 266.027746 951.614916 258.569094 965.756334 244.73028 965.985183 244.450671 964.662944 237.471348 955.839542 228.396775 946.790923 222.365217 936.216644 214.75405 919.194634 182.432013 917.11683 176.178946 904.758982 164.613315 893.120373 148.261654 892.797078 147.455509 892.448356 145.18959 891.90711 126.568378 867.968773 105.245492 802.975644 47.0796243 798.478579 43.0961084 786.371375 32.2894145 751.179477 0.682739813"></polygon>
                                    <polyline id="Stroke-27" stroke="#FFFFFF" stroke-width="0.8" stroke-linejoin="round" points="489.752135 11.5083164 523.669017 10.9890431 739.54995 3.67201079 751.181293 0.687097351 786.369558 32.2901408 798.480395 43.0932034 802.97746 47.0803506 867.966957 105.242587 891.905294 126.569104 892.44654 145.186684 892.795262 147.456235 893.118557 148.258749 904.757165 164.614041 917.115014 176.179673 919.19645 182.432739 936.21846 214.754777 946.789107 222.365943 955.841358 228.397501 964.661127 237.472074 965.986999 244.447766 965.754517 244.731006 951.613099 258.56982 941.605494 266.028472 926.89377 276.472038 834.010118 281.439631 817.082553 284.911136 808.76044 290.227333 740.247394 293.143252 641.980341 297.384589 608.368591 299.99548 591.669876 303.62313 551.759329 304.919498 533.204394 302.958606 531.420824 300.59101 526.135501 300.710842 506.745085 301.262797 494.13296 319.430099 491.822674 328.377577 476.754962 316.339878 475.31285 315.116136 474.074159 312.781222 474.008774 311.619212 476.282734 306.716982 484.332409 299.88291 486.0179 294.254424 490.213466 280.081532 493.991291 259.47764 493.166708 251.437983 491.510277 232.758671 490.006412 210.665954 489.051058 171.981911 493.751545 171.945598 491.067109 49.8945938 487.935873 30.823103 487.986728 25.9789734 489.763033 11.5482605"></polyline>
                                </g>
                            </g>
                        </g>
                        <path d="M98.7666016,103 L98.7666016,90.1503906 L100.260742,90.1503906 L100.260742,101.646484 L105.929688,101.646484 L105.929688,103 L98.7666016,103 Z M116.204102,98.1748047 C116.204102,99.745125 115.808598,100.971187 115.017578,101.853027 C114.226559,102.734868 113.133796,103.175781 111.739258,103.175781 C110.877925,103.175781 110.113285,102.973635 109.445312,102.569336 C108.77734,102.165037 108.261721,101.584965 107.898438,100.829102 C107.535154,100.073238 107.353516,99.1884816 107.353516,98.1748047 C107.353516,96.6044843 107.74609,95.381352 108.53125,94.5053711 C109.31641,93.6293902 110.406243,93.1914062 111.800781,93.1914062 C113.148444,93.1914062 114.219234,93.639644 115.013184,94.5361328 C115.807133,95.4326217 116.204102,96.6455002 116.204102,98.1748047 Z M108.865234,98.1748047 C108.865234,99.4052796 109.111326,100.34277 109.603516,100.987305 C110.095706,101.631839 110.819331,101.954102 111.774414,101.954102 C112.729497,101.954102 113.454587,101.633304 113.949707,100.991699 C114.444827,100.350094 114.692383,99.411139 114.692383,98.1748047 C114.692383,96.9501892 114.444827,96.0200227 113.949707,95.3842773 C113.454587,94.748532 112.723638,94.4306641 111.756836,94.4306641 C110.801753,94.4306641 110.081057,94.7441375 109.594727,95.3710938 C109.108396,95.99805 108.865234,96.932611 108.865234,98.1748047 Z M124.975586,100.37207 C124.975586,101.268559 124.641605,101.959959 123.973633,102.446289 C123.305661,102.93262 122.36817,103.175781 121.161133,103.175781 C119.883783,103.175781 118.887699,102.973635 118.172852,102.569336 L118.172852,101.21582 C118.635745,101.450196 119.132322,101.634765 119.662598,101.769531 C120.192874,101.904298 120.704099,101.97168 121.196289,101.97168 C121.958012,101.97168 122.543943,101.850099 122.954102,101.606934 C123.36426,101.363768 123.569336,100.993167 123.569336,100.495117 C123.569336,100.120115 123.40674,99.7993177 123.081543,99.5327148 C122.756346,99.2661119 122.122075,98.9511737 121.178711,98.5878906 C120.282222,98.2539046 119.645021,97.9624036 119.26709,97.7133789 C118.889158,97.4643542 118.607911,97.1816422 118.42334,96.8652344 C118.238769,96.5488265 118.146484,96.1709006 118.146484,95.7314453 C118.146484,94.9462851 118.465817,94.3266624 119.104492,93.8725586 C119.743167,93.4184548 120.619135,93.1914062 121.732422,93.1914062 C122.769536,93.1914062 123.783198,93.4023416 124.773438,93.8242188 L124.254883,95.0107422 C123.288081,94.6123027 122.412113,94.4130859 121.626953,94.4130859 C120.935543,94.4130859 120.414064,94.5214833 120.0625,94.7382812 C119.710936,94.9550792 119.535156,95.2539043 119.535156,95.6347656 C119.535156,95.8925794 119.601074,96.1123038 119.73291,96.2939453 C119.864747,96.4755868 120.077147,96.6484367 120.370117,96.8125 C120.663087,96.9765633 121.225582,97.2138656 122.057617,97.5244141 C123.200201,97.9404318 123.972166,98.3593729 124.373535,98.78125 C124.774904,99.2031271 124.975586,99.7333952 124.975586,100.37207 Z M140.321289,103 L138.72168,98.9130859 L133.571289,98.9130859 L131.989258,103 L130.477539,103 L135.557617,90.0976562 L136.814453,90.0976562 L141.868164,103 L140.321289,103 Z M138.255859,97.5683594 L136.761719,93.5869141 C136.568358,93.0830053 136.369142,92.4648474 136.164062,91.7324219 C136.035156,92.2949247 135.850587,92.9130826 135.610352,93.5869141 L134.098633,97.5683594 L138.255859,97.5683594 Z M150.006836,103 L150.006836,96.7685547 C150.006836,95.9833945 149.828127,95.3974629 149.470703,95.0107422 C149.113279,94.6240215 148.553715,94.4306641 147.791992,94.4306641 C146.784175,94.4306641 146.045901,94.7031223 145.577148,95.2480469 C145.108396,95.7929715 144.874023,96.6923765 144.874023,97.9462891 L144.874023,103 L143.415039,103 L143.415039,93.3671875 L144.601562,93.3671875 L144.838867,94.6855469 L144.90918,94.6855469 C145.208009,94.2109351 145.62695,93.843263 146.166016,93.5825195 C146.705081,93.321776 147.305661,93.1914062 147.967773,93.1914062 C149.127935,93.1914062 150.000974,93.4711886 150.586914,94.0307617 C151.172854,94.5903348 151.46582,95.4853454 151.46582,96.7158203 L151.46582,103 L150.006836,103 Z M162.34668,93.3671875 L162.34668,94.2900391 L160.5625,94.5009766 C160.726563,94.7060557 160.873046,94.9741194 161.001953,95.3051758 C161.13086,95.6362321 161.195312,96.0097635 161.195312,96.4257812 C161.195312,97.3691453 160.87305,98.1220675 160.228516,98.6845703 C159.583981,99.2470731 158.699224,99.5283203 157.574219,99.5283203 C157.287108,99.5283203 157.017579,99.504883 156.765625,99.4580078 C156.144528,99.7861345 155.833984,100.199216 155.833984,100.697266 C155.833984,100.960939 155.942382,101.155761 156.15918,101.281738 C156.375978,101.407715 156.748044,101.470703 157.275391,101.470703 L158.980469,101.470703 C160.023443,101.470703 160.824704,101.690427 161.384277,102.129883 C161.94385,102.569338 162.223633,103.208004 162.223633,104.045898 C162.223633,105.11231 161.795903,105.92529 160.94043,106.484863 C160.084957,107.044436 158.836922,107.324219 157.196289,107.324219 C155.936517,107.324219 154.965335,107.089846 154.282715,106.621094 C153.600094,106.152341 153.258789,105.490239 153.258789,104.634766 C153.258789,104.048825 153.446287,103.541994 153.821289,103.114258 C154.196291,102.686521 154.723629,102.396485 155.40332,102.244141 C155.157225,102.132812 154.950684,101.959962 154.783691,101.725586 C154.616698,101.49121 154.533203,101.218752 154.533203,100.908203 C154.533203,100.556639 154.626952,100.249025 154.814453,99.9853516 C155.001954,99.7216784 155.29785,99.4667981 155.702148,99.2207031 C155.204099,99.015624 154.798341,98.6669946 154.484863,98.1748047 C154.171385,97.6826147 154.014648,97.1201204 154.014648,96.4873047 C154.014648,95.4326119 154.331052,94.6196318 154.963867,94.0483398 C155.596683,93.4770479 156.493158,93.1914062 157.65332,93.1914062 C158.157229,93.1914062 158.611326,93.2499994 159.015625,93.3671875 L162.34668,93.3671875 Z M154.665039,104.617188 C154.665039,105.138674 154.884763,105.534178 155.324219,105.803711 C155.763674,106.073244 156.393551,106.208008 157.213867,106.208008 C158.438483,106.208008 159.345212,106.024904 159.934082,105.658691 C160.522952,105.292479 160.817383,104.795902 160.817383,104.168945 C160.817383,103.647458 160.656252,103.285646 160.333984,103.083496 C160.011717,102.881347 159.405278,102.780273 158.514648,102.780273 L156.765625,102.780273 C156.103512,102.780273 155.587892,102.938475 155.21875,103.254883 C154.849608,103.571291 154.665039,104.025388 154.665039,104.617188 Z M155.456055,96.4521484 C155.456055,97.1259799 155.646482,97.6357405 156.027344,97.9814453 C156.408205,98.3271502 156.938473,98.5 157.618164,98.5 C159.041999,98.5 159.753906,97.8086007 159.753906,96.4257812 C159.753906,94.9785084 159.03321,94.2548828 157.591797,94.2548828 C156.906247,94.2548828 156.378908,94.4394513 156.009766,94.8085938 C155.640623,95.1777362 155.456055,95.7255823 155.456055,96.4521484 Z M168.393555,103.175781 C166.969719,103.175781 165.846196,102.742192 165.022949,101.875 C164.199703,101.007808 163.788086,99.8037186 163.788086,98.2626953 C163.788086,96.7099532 164.170406,95.4765671 164.935059,94.5625 C165.699711,93.6484329 166.726556,93.1914062 168.015625,93.1914062 C169.222662,93.1914062 170.177731,93.5883749 170.880859,94.3823242 C171.583988,95.1762735 171.935547,96.2236263 171.935547,97.5244141 L171.935547,98.4472656 L165.299805,98.4472656 C165.329102,99.5781307 165.614743,100.436521 166.156738,101.022461 C166.698733,101.608401 167.461909,101.901367 168.446289,101.901367 C169.483404,101.901367 170.508784,101.684572 171.522461,101.250977 L171.522461,102.551758 C171.006833,102.774415 170.519045,102.934082 170.059082,103.030762 C169.599119,103.127442 169.043949,103.175781 168.393555,103.175781 Z M167.998047,94.4130859 C167.224606,94.4130859 166.607912,94.6650365 166.147949,95.1689453 C165.687986,95.6728541 165.416993,96.3701127 165.334961,97.2607422 L170.371094,97.2607422 C170.371094,96.3408157 170.166018,95.6362329 169.755859,95.1469727 C169.345701,94.6577124 168.759769,94.4130859 167.998047,94.4130859 Z M175.881836,103 L174.422852,103 L174.422852,89.3242188 L175.881836,89.3242188 L175.881836,103 Z M183.044922,103.175781 C181.621087,103.175781 180.497563,102.742192 179.674316,101.875 C178.85107,101.007808 178.439453,99.8037186 178.439453,98.2626953 C178.439453,96.7099532 178.821774,95.4765671 179.586426,94.5625 C180.351078,93.6484329 181.377923,93.1914062 182.666992,93.1914062 C183.874029,93.1914062 184.829098,93.5883749 185.532227,94.3823242 C186.235355,95.1762735 186.586914,96.2236263 186.586914,97.5244141 L186.586914,98.4472656 L179.951172,98.4472656 C179.980469,99.5781307 180.266111,100.436521 180.808105,101.022461 C181.3501,101.608401 182.113276,101.901367 183.097656,101.901367 C184.134771,101.901367 185.160151,101.684572 186.173828,101.250977 L186.173828,102.551758 C185.658201,102.774415 185.170412,102.934082 184.710449,103.030762 C184.250486,103.127442 183.695316,103.175781 183.044922,103.175781 Z M182.649414,94.4130859 C181.875973,94.4130859 181.25928,94.6650365 180.799316,95.1689453 C180.339353,95.6728541 180.06836,96.3701127 179.986328,97.2607422 L185.022461,97.2607422 C185.022461,96.3408157 184.817385,95.6362329 184.407227,95.1469727 C183.997068,94.6577124 183.411137,94.4130859 182.649414,94.4130859 Z M195.288086,100.37207 C195.288086,101.268559 194.954105,101.959959 194.286133,102.446289 C193.618161,102.93262 192.68067,103.175781 191.473633,103.175781 C190.196283,103.175781 189.200199,102.973635 188.485352,102.569336 L188.485352,101.21582 C188.948245,101.450196 189.444822,101.634765 189.975098,101.769531 C190.505374,101.904298 191.016599,101.97168 191.508789,101.97168 C192.270512,101.97168 192.856443,101.850099 193.266602,101.606934 C193.67676,101.363768 193.881836,100.993167 193.881836,100.495117 C193.881836,100.120115 193.71924,99.7993177 193.394043,99.5327148 C193.068846,99.2661119 192.434575,98.9511737 191.491211,98.5878906 C190.594722,98.2539046 189.957521,97.9624036 189.57959,97.7133789 C189.201658,97.4643542 188.920411,97.1816422 188.73584,96.8652344 C188.551269,96.5488265 188.458984,96.1709006 188.458984,95.7314453 C188.458984,94.9462851 188.778317,94.3266624 189.416992,93.8725586 C190.055667,93.4184548 190.931635,93.1914062 192.044922,93.1914062 C193.082036,93.1914062 194.095698,93.4023416 195.085938,93.8242188 L194.567383,95.0107422 C193.600581,94.6123027 192.724613,94.4130859 191.939453,94.4130859 C191.248043,94.4130859 190.726564,94.5214833 190.375,94.7382812 C190.023436,94.9550792 189.847656,95.2539043 189.847656,95.6347656 C189.847656,95.8925794 189.913574,96.1123038 190.04541,96.2939453 C190.177247,96.4755868 190.389647,96.6484367 190.682617,96.8125 C190.975587,96.9765633 191.538082,97.2138656 192.370117,97.5244141 C193.512701,97.9404318 194.284666,98.3593729 194.686035,98.78125 C195.087404,99.2031271 195.288086,99.7333952 195.288086,100.37207 Z" id="Los-Angeles" fill="#0B1004" mask="url(#mask-2)"></path>
                        <path d="M319.017578,314.581055 C319.017578,315.71192 318.607426,316.593747 317.787109,317.226562 C316.966793,317.859378 315.853523,318.175781 314.447266,318.175781 C312.923821,318.175781 311.751957,317.979494 310.931641,317.586914 L310.931641,316.145508 C311.458987,316.368165 312.0332,316.543945 312.654297,316.672852 C313.275394,316.801758 313.890622,316.866211 314.5,316.866211 C315.496099,316.866211 316.246091,316.677248 316.75,316.299316 C317.253909,315.921385 317.505859,315.395511 317.505859,314.72168 C317.505859,314.276365 317.416505,313.911623 317.237793,313.627441 C317.059081,313.34326 316.760256,313.081056 316.341309,312.84082 C315.922361,312.600585 315.285161,312.328127 314.429688,312.023438 C313.234369,311.595701 312.380374,311.08887 311.867676,310.50293 C311.354978,309.916989 311.098633,309.152348 311.098633,308.208984 C311.098633,307.218745 311.470699,306.430667 312.214844,305.844727 C312.958988,305.258786 313.943353,304.96582 315.167969,304.96582 C316.445319,304.96582 317.620112,305.200193 318.692383,305.668945 L318.226562,306.969727 C317.16601,306.524412 316.134771,306.301758 315.132812,306.301758 C314.341793,306.301758 313.723635,306.471678 313.27832,306.811523 C312.833006,307.151369 312.610352,307.623044 312.610352,308.226562 C312.610352,308.671877 312.692382,309.03662 312.856445,309.320801 C313.020509,309.604982 313.297361,309.865721 313.687012,310.103027 C314.076662,310.340333 314.672848,310.602538 315.475586,310.889648 C316.823249,311.37012 317.750486,311.885739 318.257324,312.436523 C318.764163,312.987307 319.017578,313.702144 319.017578,314.581055 Z M327.349609,318 L327.05957,316.628906 L326.989258,316.628906 C326.508787,317.232425 326.029788,317.641112 325.552246,317.85498 C325.074705,318.068849 324.478519,318.175781 323.763672,318.175781 C322.808589,318.175781 322.060061,317.92969 321.518066,317.4375 C320.976072,316.94531 320.705078,316.245122 320.705078,315.336914 C320.705078,313.391592 322.260727,312.372071 325.37207,312.27832 L327.006836,312.225586 L327.006836,311.62793 C327.006836,310.872067 326.84424,310.313967 326.519043,309.953613 C326.193846,309.59326 325.673832,309.413086 324.958984,309.413086 C324.156246,309.413086 323.248052,309.659177 322.234375,310.151367 L321.786133,309.035156 C322.260745,308.777342 322.780759,308.575196 323.346191,308.428711 C323.911624,308.282226 324.478513,308.208984 325.046875,308.208984 C326.195318,308.208984 327.046384,308.463865 327.600098,308.973633 C328.153811,309.483401 328.430664,310.300776 328.430664,311.425781 L328.430664,318 L327.349609,318 Z M324.053711,316.97168 C324.961919,316.97168 325.67529,316.722659 326.193848,316.224609 C326.712405,315.72656 326.97168,315.029301 326.97168,314.132812 L326.97168,313.262695 L325.512695,313.324219 C324.352533,313.365235 323.516116,313.545409 323.003418,313.864746 C322.49072,314.184084 322.234375,314.680661 322.234375,315.354492 C322.234375,315.881839 322.394041,316.283202 322.713379,316.558594 C323.032716,316.833986 323.479489,316.97168 324.053711,316.97168 Z M338.02832,318 L338.02832,311.768555 C338.02832,310.983395 337.849611,310.397463 337.492188,310.010742 C337.134764,309.624022 336.575199,309.430664 335.813477,309.430664 C334.805659,309.430664 334.067385,309.703122 333.598633,310.248047 C333.12988,310.792971 332.895508,311.692377 332.895508,312.946289 L332.895508,318 L331.436523,318 L331.436523,308.367188 L332.623047,308.367188 L332.860352,309.685547 L332.930664,309.685547 C333.229494,309.210935 333.648435,308.843263 334.1875,308.58252 C334.726565,308.321776 335.327145,308.191406 335.989258,308.191406 C337.14942,308.191406 338.022458,308.471189 338.608398,309.030762 C339.194339,309.590335 339.487305,310.485345 339.487305,311.71582 L339.487305,318 L338.02832,318 Z M357.636719,311.452148 C357.636719,313.573253 357.061041,315.194819 355.909668,316.316895 C354.758295,317.43897 353.101573,318 350.939453,318 L347.379883,318 L347.379883,305.150391 L351.317383,305.150391 C353.31544,305.150391 354.868159,305.704096 355.975586,306.811523 C357.083013,307.918951 357.636719,309.46581 357.636719,311.452148 Z M356.054688,311.504883 C356.054688,309.829093 355.634282,308.56641 354.793457,307.716797 C353.952633,306.867183 352.703133,306.442383 351.044922,306.442383 L348.874023,306.442383 L348.874023,316.708008 L350.693359,316.708008 C352.474618,316.708008 353.813472,316.270024 354.709961,315.394043 C355.60645,314.518062 356.054688,313.221688 356.054688,311.504883 Z M361.741211,318 L360.282227,318 L360.282227,308.367188 L361.741211,308.367188 L361.741211,318 Z M360.15918,305.756836 C360.15918,305.42285 360.24121,305.178223 360.405273,305.022949 C360.569337,304.867675 360.774413,304.790039 361.020508,304.790039 C361.254884,304.790039 361.45703,304.86914 361.626953,305.027344 C361.796876,305.185548 361.881836,305.428709 361.881836,305.756836 C361.881836,306.084963 361.796876,306.329589 361.626953,306.490723 C361.45703,306.651856 361.254884,306.732422 361.020508,306.732422 C360.774413,306.732422 360.569337,306.651856 360.405273,306.490723 C360.24121,306.329589 360.15918,306.084963 360.15918,305.756836 Z M368.904297,318.175781 C367.480462,318.175781 366.356938,317.742192 365.533691,316.875 C364.710445,316.007808 364.298828,314.803719 364.298828,313.262695 C364.298828,311.709953 364.681149,310.476567 365.445801,309.5625 C366.210453,308.648433 367.237298,308.191406 368.526367,308.191406 C369.733404,308.191406 370.688473,308.588375 371.391602,309.382324 C372.09473,310.176274 372.446289,311.223626 372.446289,312.524414 L372.446289,313.447266 L365.810547,313.447266 C365.839844,314.578131 366.125486,315.436521 366.66748,316.022461 C367.209475,316.608401 367.972651,316.901367 368.957031,316.901367 C369.994146,316.901367 371.019526,316.684572 372.033203,316.250977 L372.033203,317.551758 C371.517576,317.774415 371.029787,317.934082 370.569824,318.030762 C370.109861,318.127442 369.554691,318.175781 368.904297,318.175781 Z M368.508789,309.413086 C367.735348,309.413086 367.118655,309.665037 366.658691,310.168945 C366.198728,310.672854 365.927735,311.370113 365.845703,312.260742 L370.881836,312.260742 C370.881836,311.340816 370.67676,310.636233 370.266602,310.146973 C369.856443,309.657712 369.270512,309.413086 368.508789,309.413086 Z M382.817383,308.367188 L382.817383,309.290039 L381.033203,309.500977 C381.197266,309.706056 381.343749,309.974119 381.472656,310.305176 C381.601563,310.636232 381.666016,311.009764 381.666016,311.425781 C381.666016,312.369145 381.343753,313.122068 380.699219,313.68457 C380.054684,314.247073 379.169927,314.52832 378.044922,314.52832 C377.757811,314.52832 377.488283,314.504883 377.236328,314.458008 C376.615231,314.786134 376.304688,315.199216 376.304688,315.697266 C376.304688,315.960939 376.413085,316.155761 376.629883,316.281738 C376.846681,316.407715 377.218747,316.470703 377.746094,316.470703 L379.451172,316.470703 C380.494146,316.470703 381.295407,316.690427 381.85498,317.129883 C382.414554,317.569338 382.694336,318.208004 382.694336,319.045898 C382.694336,320.11231 382.266606,320.92529 381.411133,321.484863 C380.55566,322.044436 379.307625,322.324219 377.666992,322.324219 C376.40722,322.324219 375.436039,322.089846 374.753418,321.621094 C374.070797,321.152341 373.729492,320.490239 373.729492,319.634766 C373.729492,319.048825 373.91699,318.541994 374.291992,318.114258 C374.666994,317.686521 375.194333,317.396485 375.874023,317.244141 C375.627928,317.132812 375.421388,316.959962 375.254395,316.725586 C375.087402,316.49121 375.003906,316.218752 375.003906,315.908203 C375.003906,315.556639 375.097655,315.249025 375.285156,314.985352 C375.472657,314.721678 375.768553,314.466798 376.172852,314.220703 C375.674802,314.015624 375.269045,313.666995 374.955566,313.174805 C374.642088,312.682615 374.485352,312.12012 374.485352,311.487305 C374.485352,310.432612 374.801755,309.619632 375.43457,309.04834 C376.067386,308.477048 376.963861,308.191406 378.124023,308.191406 C378.627932,308.191406 379.082029,308.249999 379.486328,308.367188 L382.817383,308.367188 Z M375.135742,319.617188 C375.135742,320.138674 375.355467,320.534178 375.794922,320.803711 C376.234377,321.073244 376.864254,321.208008 377.68457,321.208008 C378.909186,321.208008 379.815915,321.024904 380.404785,320.658691 C380.993655,320.292479 381.288086,319.795902 381.288086,319.168945 C381.288086,318.647458 381.126955,318.285646 380.804688,318.083496 C380.48242,317.881347 379.875981,317.780273 378.985352,317.780273 L377.236328,317.780273 C376.574215,317.780273 376.058596,317.938475 375.689453,318.254883 C375.320311,318.571291 375.135742,319.025388 375.135742,319.617188 Z M375.926758,311.452148 C375.926758,312.12598 376.117186,312.63574 376.498047,312.981445 C376.878908,313.32715 377.409176,313.5 378.088867,313.5 C379.512702,313.5 380.224609,312.808601 380.224609,311.425781 C380.224609,309.978508 379.503913,309.254883 378.0625,309.254883 C377.37695,309.254883 376.849611,309.439451 376.480469,309.808594 C376.111326,310.177736 375.926758,310.725582 375.926758,311.452148 Z M393.109375,313.174805 C393.109375,314.745125 392.713871,315.971187 391.922852,316.853027 C391.131832,317.734868 390.039069,318.175781 388.644531,318.175781 C387.783199,318.175781 387.018558,317.973635 386.350586,317.569336 C385.682614,317.165037 385.166994,316.584965 384.803711,315.829102 C384.440428,315.073238 384.258789,314.188482 384.258789,313.174805 C384.258789,311.604484 384.651363,310.381352 385.436523,309.505371 C386.221684,308.62939 387.311516,308.191406 388.706055,308.191406 C390.053718,308.191406 391.124508,308.639644 391.918457,309.536133 C392.712406,310.432622 393.109375,311.6455 393.109375,313.174805 Z M385.770508,313.174805 C385.770508,314.40528 386.016599,315.34277 386.508789,315.987305 C387.000979,316.631839 387.724605,316.954102 388.679688,316.954102 C389.63477,316.954102 390.359861,316.633304 390.85498,315.991699 C391.3501,315.350094 391.597656,314.411139 391.597656,313.174805 C391.597656,311.950189 391.3501,311.020023 390.85498,310.384277 C390.359861,309.748532 389.628911,309.430664 388.662109,309.430664 C387.707026,309.430664 386.986331,309.744137 386.5,310.371094 C386.013669,310.99805 385.770508,311.932611 385.770508,313.174805 Z" id="San-Diego" fill="#0B1004" mask="url(#mask-2)"></path>
                        <path d="M193.437463,195.557617 C193.437463,197.614268 192.917448,199.231439 191.877404,200.40918 C190.83736,201.58692 189.391574,202.175781 187.540002,202.175781 C185.647414,202.175781 184.18698,201.597174 183.158654,200.439941 C182.130329,199.282709 181.616174,197.649425 181.616174,195.540039 C181.616174,193.448232 182.131794,191.826666 183.163049,190.675293 C184.194304,189.52392 185.659133,188.948242 187.55758,188.948242 C189.403292,188.948242 190.844684,189.534174 191.881799,190.706055 C192.918913,191.877936 193.437463,193.495107 193.437463,195.557617 Z M183.198205,195.557617 C183.198205,197.29786 183.568807,198.617671 184.310021,199.51709 C185.051236,200.416508 186.127885,200.866211 187.540002,200.866211 C188.963837,200.866211 190.039022,200.417973 190.765588,199.521484 C191.492154,198.624996 191.855431,197.30372 191.855431,195.557617 C191.855431,193.829093 191.493619,192.518071 190.769982,191.624512 C190.046346,190.730953 188.975556,190.28418 187.55758,190.28418 C186.133745,190.28418 185.051236,190.733882 184.310021,191.633301 C183.568807,192.532719 183.198205,193.840812 183.198205,195.557617 Z M200.477502,192.191406 C200.905238,192.191406 201.289024,192.226562 201.628869,192.296875 L201.426721,193.650391 C201.028281,193.5625 200.676722,193.518555 200.372033,193.518555 C199.592732,193.518555 198.926235,193.834958 198.372521,194.467773 C197.818808,195.100589 197.541955,195.888667 197.541955,196.832031 L197.541955,202 L196.082971,202 L196.082971,192.367188 L197.287072,192.367188 L197.454064,194.151367 L197.524377,194.151367 C197.8818,193.524411 198.31246,193.041017 198.816369,192.701172 C199.320278,192.361326 199.873983,192.191406 200.477502,192.191406 Z M209.354455,202 L209.064416,200.628906 L208.994103,200.628906 C208.513632,201.232425 208.034633,201.641112 207.557092,201.85498 C207.07955,202.068849 206.483365,202.175781 205.768517,202.175781 C204.813435,202.175781 204.064907,201.92969 203.522912,201.4375 C202.980917,200.94531 202.709924,200.245122 202.709924,199.336914 C202.709924,197.391592 204.265572,196.372071 207.376916,196.27832 L209.011681,196.225586 L209.011681,195.62793 C209.011681,194.872067 208.849085,194.313967 208.523889,193.953613 C208.198692,193.59326 207.678677,193.413086 206.96383,193.413086 C206.161092,193.413086 205.252897,193.659177 204.239221,194.151367 L203.790978,193.035156 C204.26559,192.777342 204.785604,192.575196 205.351037,192.428711 C205.916469,192.282226 206.483358,192.208984 207.051721,192.208984 C208.200164,192.208984 209.051229,192.463865 209.604943,192.973633 C210.158657,193.483401 210.43551,194.300776 210.43551,195.425781 L210.43551,202 L209.354455,202 Z M206.058556,200.97168 C206.966764,200.97168 207.680136,200.722659 208.198693,200.224609 C208.71725,199.72656 208.976525,199.029301 208.976525,198.132812 L208.976525,197.262695 L207.517541,197.324219 C206.357379,197.365235 205.520961,197.545409 205.008264,197.864746 C204.495566,198.184084 204.239221,198.680661 204.239221,199.354492 C204.239221,199.881839 204.398887,200.283202 204.718224,200.558594 C205.037562,200.833986 205.484335,200.97168 206.058556,200.97168 Z M220.033166,202 L220.033166,195.768555 C220.033166,194.983395 219.854457,194.397463 219.497033,194.010742 C219.139609,193.624022 218.580045,193.430664 217.818322,193.430664 C216.810505,193.430664 216.072231,193.703122 215.603478,194.248047 C215.134726,194.792971 214.900353,195.692377 214.900353,196.946289 L214.900353,202 L213.441369,202 L213.441369,192.367188 L214.627892,192.367188 L214.865197,193.685547 L214.93551,193.685547 C215.234339,193.210935 215.65328,192.843263 216.192346,192.58252 C216.731411,192.321776 217.331991,192.191406 217.994103,192.191406 C219.154265,192.191406 220.027304,192.471189 220.613244,193.030762 C221.199184,193.590335 221.49215,194.485345 221.49215,195.71582 L221.49215,202 L220.033166,202 Z M232.37301,192.367188 L232.37301,193.290039 L230.58883,193.500977 C230.752893,193.706056 230.899376,193.974119 231.028283,194.305176 C231.15719,194.636232 231.221642,195.009764 231.221642,195.425781 C231.221642,196.369145 230.89938,197.122068 230.254846,197.68457 C229.610311,198.247073 228.725554,198.52832 227.600549,198.52832 C227.313438,198.52832 227.043909,198.504883 226.791955,198.458008 C226.170858,198.786134 225.860314,199.199216 225.860314,199.697266 C225.860314,199.960939 225.968712,200.155761 226.18551,200.281738 C226.402308,200.407715 226.774374,200.470703 227.301721,200.470703 L229.006799,200.470703 C230.049773,200.470703 230.851034,200.690427 231.410607,201.129883 C231.97018,201.569338 232.249963,202.208004 232.249963,203.045898 C232.249963,204.11231 231.822233,204.92529 230.96676,205.484863 C230.111287,206.044436 228.863252,206.324219 227.222619,206.324219 C225.962847,206.324219 224.991665,206.089846 224.309045,205.621094 C223.626424,205.152341 223.285119,204.490239 223.285119,203.634766 C223.285119,203.048825 223.472617,202.541994 223.847619,202.114258 C224.222621,201.686521 224.749959,201.396485 225.42965,201.244141 C225.183555,201.132812 224.977014,200.959962 224.810021,200.725586 C224.643028,200.49121 224.559533,200.218752 224.559533,199.908203 C224.559533,199.556639 224.653282,199.249025 224.840783,198.985352 C225.028284,198.721678 225.324179,198.466798 225.728478,198.220703 C225.230429,198.015624 224.824671,197.666995 224.511193,197.174805 C224.197715,196.682615 224.040978,196.12012 224.040978,195.487305 C224.040978,194.432612 224.357381,193.619632 224.990197,193.04834 C225.623013,192.477048 226.519488,192.191406 227.67965,192.191406 C228.183559,192.191406 228.637656,192.249999 229.041955,192.367188 L232.37301,192.367188 Z M224.691369,203.617188 C224.691369,204.138674 224.911093,204.534178 225.350549,204.803711 C225.790004,205.073244 226.419881,205.208008 227.240197,205.208008 C228.464813,205.208008 229.371542,205.024904 229.960412,204.658691 C230.549282,204.292479 230.843713,203.795902 230.843713,203.168945 C230.843713,202.647458 230.682582,202.285646 230.360314,202.083496 C230.038047,201.881347 229.431608,201.780273 228.540978,201.780273 L226.791955,201.780273 C226.129842,201.780273 225.614222,201.938475 225.24508,202.254883 C224.875937,202.571291 224.691369,203.025388 224.691369,203.617188 Z M225.482385,195.452148 C225.482385,196.12598 225.672812,196.63574 226.053674,196.981445 C226.434535,197.32715 226.964803,197.5 227.644494,197.5 C229.068329,197.5 229.780236,196.808601 229.780236,195.425781 C229.780236,193.978508 229.05954,193.254883 227.618127,193.254883 C226.932576,193.254883 226.405238,193.439451 226.036096,193.808594 C225.666953,194.177736 225.482385,194.725582 225.482385,195.452148 Z M238.419885,202.175781 C236.996049,202.175781 235.872525,201.742192 235.049279,200.875 C234.226033,200.007808 233.814416,198.803719 233.814416,197.262695 C233.814416,195.709953 234.196736,194.476567 234.961389,193.5625 C235.726041,192.648433 236.752886,192.191406 238.041955,192.191406 C239.248992,192.191406 240.204061,192.588375 240.907189,193.382324 C241.610318,194.176274 241.961877,195.223626 241.961877,196.524414 L241.961877,197.447266 L235.326135,197.447266 C235.355432,198.578131 235.641073,199.436521 236.183068,200.022461 C236.725063,200.608401 237.488239,200.901367 238.472619,200.901367 C239.509734,200.901367 240.535114,200.684572 241.548791,200.250977 L241.548791,201.551758 C241.033163,201.774415 240.545375,201.934082 240.085412,202.030762 C239.625449,202.127442 239.070278,202.175781 238.419885,202.175781 Z M238.024377,193.413086 C237.250935,193.413086 236.634242,193.665037 236.174279,194.168945 C235.714316,194.672854 235.443323,195.370113 235.361291,196.260742 L240.397424,196.260742 C240.397424,195.340816 240.192348,194.636233 239.782189,194.146973 C239.372031,193.657712 238.786099,193.413086 238.024377,193.413086 Z M189.104455,214.301758 C187.692338,214.301758 186.577604,214.771968 185.760217,215.712402 C184.94283,216.652837 184.534142,217.940422 184.534142,219.575195 C184.534142,221.256844 184.928181,222.556148 185.716271,223.473145 C186.504361,224.390141 187.627885,224.848633 189.086877,224.848633 C189.983366,224.848633 191.005816,224.687502 192.15426,224.365234 L192.15426,225.674805 C191.26363,226.008791 190.165008,226.175781 188.858361,226.175781 C186.965774,226.175781 185.505339,225.601568 184.477014,224.453125 C183.448688,223.304682 182.934533,221.672862 182.934533,219.557617 C182.934533,218.233392 183.182089,217.073247 183.677209,216.077148 C184.172328,215.08105 184.887165,214.313479 185.82174,213.774414 C186.756315,213.235349 187.856402,212.96582 189.122033,212.96582 C190.469696,212.96582 191.647419,213.211912 192.655236,213.704102 L192.022424,214.987305 C191.049763,214.530271 190.077116,214.301758 189.104455,214.301758 Z M203.052697,221.174805 C203.052697,222.745125 202.657193,223.971187 201.866174,224.853027 C201.075154,225.734868 199.982392,226.175781 198.587853,226.175781 C197.726521,226.175781 196.96188,225.973635 196.293908,225.569336 C195.625936,225.165037 195.110316,224.584965 194.747033,223.829102 C194.38375,223.073238 194.202111,222.188482 194.202111,221.174805 C194.202111,219.604484 194.594685,218.381352 195.379846,217.505371 C196.165006,216.62939 197.254839,216.191406 198.649377,216.191406 C199.99704,216.191406 201.06783,216.639644 201.861779,217.536133 C202.655728,218.432622 203.052697,219.6455 203.052697,221.174805 Z M195.71383,221.174805 C195.71383,222.40528 195.959921,223.34277 196.452111,223.987305 C196.944301,224.631839 197.667927,224.954102 198.62301,224.954102 C199.578093,224.954102 200.303183,224.633304 200.798303,223.991699 C201.293422,223.350094 201.540978,222.411139 201.540978,221.174805 C201.540978,219.950189 201.293422,219.020023 200.798303,218.384277 C200.303183,217.748532 199.572233,217.430664 198.605431,217.430664 C197.650349,217.430664 196.929653,217.744137 196.443322,218.371094 C195.956992,218.99805 195.71383,219.932611 195.71383,221.174805 Z M206.981408,216.367188 L206.981408,222.616211 C206.981408,223.401371 207.160117,223.987303 207.517541,224.374023 C207.874965,224.760744 208.434529,224.954102 209.196252,224.954102 C210.204069,224.954102 210.940878,224.678714 211.406701,224.12793 C211.872524,223.577146 212.105431,222.677741 212.105431,221.429688 L212.105431,216.367188 L213.564416,216.367188 L213.564416,226 L212.360314,226 L212.149377,224.708008 L212.070275,224.708008 C211.771446,225.18262 211.356899,225.545897 210.826623,225.797852 C210.296347,226.049806 209.691372,226.175781 209.011681,226.175781 C207.839801,226.175781 206.962368,225.897464 206.379357,225.34082 C205.796347,224.784177 205.504846,223.893561 205.504846,222.668945 L205.504846,216.367188 L206.981408,216.367188 Z M223.249963,226 L223.249963,219.768555 C223.249963,218.983395 223.071254,218.397463 222.71383,218.010742 C222.356406,217.624022 221.796842,217.430664 221.035119,217.430664 C220.027301,217.430664 219.289028,217.703122 218.820275,218.248047 C218.351523,218.792971 218.11715,219.692377 218.11715,220.946289 L218.11715,226 L216.658166,226 L216.658166,216.367188 L217.844689,216.367188 L218.081994,217.685547 L218.152306,217.685547 C218.451136,217.210935 218.870077,216.843263 219.409142,216.58252 C219.948208,216.321776 220.548788,216.191406 221.2109,216.191406 C222.371062,216.191406 223.2441,216.471189 223.830041,217.030762 C224.415981,217.590335 224.708947,218.485345 224.708947,219.71582 L224.708947,226 L223.249963,226 Z M230.817346,224.97168 C231.075159,224.97168 231.32418,224.952637 231.564416,224.914551 C231.804651,224.876465 231.995079,224.836914 232.135705,224.795898 L232.135705,225.912109 C231.977501,225.988282 231.744593,226.051269 231.436974,226.101074 C231.129356,226.150879 230.852503,226.175781 230.606408,226.175781 C228.743117,226.175781 227.811486,225.194346 227.811486,223.231445 L227.811486,217.500977 L226.431603,217.500977 L226.431603,216.797852 L227.811486,216.191406 L228.426721,214.134766 L229.270471,214.134766 L229.270471,216.367188 L232.065392,216.367188 L232.065392,217.500977 L229.270471,217.500977 L229.270471,223.169922 C229.270471,223.750003 229.408164,224.195311 229.683556,224.505859 C229.958948,224.816408 230.336874,224.97168 230.817346,224.97168 Z M232.531213,216.367188 L234.095666,216.367188 L236.205041,221.860352 C236.667934,223.114264 236.95504,224.019528 237.066369,224.576172 L237.136681,224.576172 C237.212854,224.277342 237.37252,223.766117 237.615685,223.04248 C237.858851,222.318844 238.654253,220.093769 240.001916,216.367188 L241.566369,216.367188 L237.426721,227.335938 C237.016562,228.419927 236.537563,229.188963 235.989709,229.643066 C235.441855,230.09717 234.769498,230.324219 233.972619,230.324219 C233.527304,230.324219 233.087856,230.274415 232.65426,230.174805 L232.65426,229.005859 C232.976527,229.076172 233.336875,229.111328 233.735314,229.111328 C234.737272,229.111328 235.452109,228.548834 235.879846,227.423828 L236.415978,226.052734 L232.531213,216.367188 Z" id="Orange-County" fill="#0B1004" mask="url(#mask-2)"></path>
                    </g>
                </g>
            </g>
        </g>
    </g>
</svg>