<svg xmlns="http://www.w3.org/2000/svg" xmlns:xlink="http://www.w3.org/1999/xlink" width="524" height="405" viewBox="0 0 524 405">
    <defs>
        <path id="a" d="M0 0h524v405H0z"/>
    </defs>
    <g fill="none" fill-rule="evenodd">
        <mask id="b" fill="#fff">
            <use xlink:href="#a"/>
        </mask>
        <use fill="#D8EBFF" xlink:href="#a"/>
        <g mask="url(#b)">
            <path stroke="#FFF" stroke-linejoin="round" stroke-width=".8" d="M1115.427 277.398l238.085-4.575 172.969 155.668 6.425 5.746 36.746 32.754 21.575 19.614 113.45 101.787 92.027 82.852 11.86 10.62 49.331 44.33 3.875 3.42 67.517 60.283-22.8 5.874-423.312 14.382-66.498 1.013-96.77 4.725 5.192-28.914.378-15.623-6.347-20.278-32.892-99.46-44.539-98.348-17.757-44.923-.798-32.454-2.243-17.265-3.669-11.613-13.803-37.122-4.801-5.624-23.42-15.167-4.9.828-22.16-8.451-.946-.471-3.22-4.069-27.864-58.106-4.195-19.057 3.504-22.376"/>
            <path fill="#E3E4E6" d="M990.07 189.104l19.266.264 16.475.978 4.38 3.176 11.34 13.083 11.147 31.669-63.798 66.25-8.925 9.828-3.397 5.667-1.468 6.517 1.496 14.439 1.161 5.417-.007 2.17-2.009 12.911-2.578 4.84-5.278 7.858-6.34 6.01-35.855 6.816-9.865 4.29-33.185 34.852-8.832 9.8-1.952 2.697-12.173 23.426-2.357 7.915-4.63 7.673-.79.492-105.19 23.475-15.577 1-20.72-9.536-13.241-12.797-4.018-5.24-2.172-3.61-2.365-5.604-20.535-51.675 16.732-16.83 45.863-16.93 38.064-4.54 24.004-6.188 73.45-75.721 27.92-.343 16.632-24.945.35-21.148 68.862-70.833 10.121 12.455"/>
            <path stroke="#FFF" stroke-linejoin="round" stroke-width=".8" d="M990.07 189.104l19.266.264 16.475.978 4.38 3.176 11.34 13.083 11.147 31.669-63.798 66.25-8.925 9.828-3.397 5.667-1.468 6.517 1.496 14.439 1.161 5.417-.007 2.17-2.009 12.911-2.578 4.84-5.278 7.858-6.34 6.01-35.855 6.816-9.865 4.29-33.185 34.852-8.832 9.8-1.952 2.697-12.173 23.426-2.357 7.915-4.63 7.673-.79.492-105.19 23.475-15.577 1-20.72-9.536-13.241-12.797-4.018-5.24-2.172-3.61-2.365-5.604-20.535-51.675 16.732-16.83 45.863-16.93 38.064-4.54 24.004-6.188 73.45-75.721 27.92-.343 16.632-24.945.35-21.148 68.862-70.833 10.121 12.455"/>
            <path fill="#E3E4E6" d="M1115.427 277.398l-3.504 22.376 4.195 19.057 27.864 58.106 3.22 4.069.947.47 22.159 8.452 4.9-.828 23.42 15.167 4.8 5.624 13.804 37.122 3.669 11.613 2.243 17.265.798 32.454-45.521.743-113.117 2.312-.413 27.337-48.492-.136-33.17-.293-41.106 27.88-27.294 28.007-23.868 22.832-35.863 5.41-39.347.4.257 70.982-91.827 88.583-64.617-47.592-20.941-18.137-5.599-17.294-1.702-34.18 8.925-16.553 10.862-54.744-79.768-82.373 96.699-97.491 20.542 51.668 2.357 5.61 2.187 3.604 4.01 5.24 13.241 12.797 20.72 9.543 15.578-1.014 105.182-23.468.797-.492 4.63-7.666 2.365-7.93 12.166-23.41 1.951-2.699 8.832-9.806 33.192-34.86 9.851-4.275 35.863-6.824 6.34-6.002 5.277-7.873 2.586-4.825 2.002-12.911.007-2.184-1.161-5.41-1.489-14.433 1.453-6.523 3.405-5.667 8.925-9.829 63.798-66.25 62.751 39.128"/>
            <path stroke="#FFF" stroke-linejoin="round" stroke-width=".8" d="M1115.427 277.398l-3.504 22.376 4.195 19.057 27.864 58.106 3.22 4.069.947.47 22.159 8.452 4.9-.828 23.42 15.167 4.8 5.624 13.804 37.122 3.669 11.613 2.243 17.265.798 32.454-45.521.743-113.117 2.312-.413 27.337-48.492-.136-33.17-.293-41.106 27.88-27.294 28.007-23.868 22.832-35.863 5.41-39.347.4.257 70.982-91.827 88.583-64.617-47.592-20.941-18.137-5.599-17.294-1.702-34.18 8.925-16.553 10.862-54.744-79.768-82.373 96.699-97.491 20.542 51.668 2.357 5.61 2.187 3.604 4.01 5.24 13.241 12.797 20.72 9.543 15.578-1.014 105.182-23.468.797-.492 4.63-7.666 2.365-7.93 12.166-23.41 1.951-2.699 8.832-9.806 33.192-34.86 9.851-4.275 35.863-6.824 6.34-6.002 5.277-7.873 2.586-4.825 2.002-12.911.007-2.184-1.161-5.41-1.489-14.433 1.453-6.523 3.405-5.667 8.925-9.829 63.798-66.25 62.751 39.128"/>
            <path fill="#E3E4E6" d="M344.584 472.258l.327.777 4.302 10.95.698 3.66-5.299 28.965-2.18 10.028-2.856 8.294-1.859 3.954-2.706 4.768-4.858 5.974-2.664 2.127-3.925 1.02h-.562l-15.777 10.656 12.344 81.203 1.474 4.84 3.483 4.553 9.715 12.576 2.387 2.991 3.155 2.413 1.724.42 2.478-.35.1-.028 4.288 2.234 15.926 10.77 9.31 9.665 44.581 54.352.563 1.299 3.704 8.558 2.037 10.249 1.118 5.646 2.529 11.64 18.882 20.414 10.606 9.286 292.488 4.618-25.884-38.179-64.617-47.6-20.948-18.143-5.592-17.294-1.71-34.174-7.506 20.841-1.553 1.556-1.332.343-7.265-.914-55.586-26.808-19.524-14.353-49.603-57.628-34.823-50.512-33.142-35.066-28.505-28.093-4.958-8.944-.299-6.652-.021-.1z"/>
            <path stroke="#FFF" stroke-linejoin="round" stroke-width=".8" d="M387.272 459.16l.299 6.66 4.957 8.943 28.506 28.086 33.149 35.066 34.816 50.505 49.603 57.642 19.516 14.346 55.593 26.808 7.272.914 1.318-.343 1.56-1.556 7.514-20.84 1.703 34.18 5.584 17.287 20.948 18.137 64.625 47.6 25.877 38.185-292.489-4.611-10.599-9.293-18.89-20.42-2.52-11.634-1.112-5.646-2.044-10.25-3.704-8.557-.562-1.3-44.582-54.351-9.31-9.664-15.926-10.77-4.288-2.235-.1.029-2.478.35-1.724-.421-3.155-2.413-2.386-2.99-9.723-12.57-3.476-4.56-1.474-4.847-12.344-81.203 15.777-10.649.563-.007 3.917-1.006 2.664-2.127 4.865-5.981 2.707-4.768 1.859-3.954 2.849-8.294 2.187-10.028 5.299-28.964-.705-3.655-4.295-10.956-.328-.777 42.665-13.198"/>
            <path fill="#E3E4E6" d="M387.272 459.16l15.948-1.77 18.504-17.744 23.327-.999 51.619.571-3.647 6.495-1.118 2.877-.207 1.891 2.785 4.047 20.457 25.202 52.651 28.093 3.775 3.798 79.768 82.373-10.855 54.752-8.925 16.544-7.522 20.856-1.552 1.549-1.318.335-7.272-.913-55.593-26.802-19.517-14.353-49.61-57.635-34.809-50.505-33.149-35.066-28.505-28.093-4.965-8.936-.292-6.667"/>
            <path stroke="#FFF" stroke-linejoin="round" stroke-width=".8" d="M387.272 459.16l15.948-1.77 18.504-17.744 23.327-.999 51.619.571-3.647 6.495-1.118 2.877-.207 1.891 2.785 4.047 20.457 25.202 52.651 28.093 3.775 3.798 79.768 82.373-10.855 54.752-8.925 16.544-7.522 20.856-1.552 1.549-1.318.335-7.272-.913-55.593-26.802-19.517-14.353-49.61-57.635-34.809-50.505-33.149-35.066-28.505-28.093-4.965-8.936-.292-6.667"/>
            <path fill="#E3E4E6" d="M708.296 223.624l27.095 56.893 1.076 4.61-.007.871-.805 1.364 25.008 56.507 8.71 7.451 23.35 18.265-24.012 6.181-38.056 4.547-45.871 16.93-16.724 16.837-96.713 97.49-3.768-3.79-52.651-28.1-20.464-25.202-2.778-4.054.207-1.891 1.11-2.877 3.655-6.495-4.245-2.612-2.9-3.626-.669-1.699.342-13.068 5.47-4.426 3.049-9.343-.84-17.672-2.351-3.769 67.388-67.449-2.18-10.313-2.186-2.705-2.108-.607 32.6-19.528 120.254-58.777"/>
            <path stroke="#FFF" stroke-linejoin="round" stroke-width=".8" d="M708.296 223.624l27.095 56.893 1.076 4.61-.007.871-.805 1.364 25.008 56.507 8.71 7.451 23.35 18.265-24.012 6.181-38.056 4.547-45.871 16.93-16.724 16.837-96.713 97.49-3.768-3.79-52.651-28.1-20.464-25.202-2.778-4.054.207-1.891 1.11-2.877 3.655-6.495-4.245-2.612-2.9-3.626-.669-1.699.342-13.068 5.47-4.426 3.049-9.343-.84-17.672-2.351-3.769 67.388-67.449-2.18-10.313-2.186-2.705-2.108-.607 32.6-19.528 120.254-58.777"/>
            <path fill="#E3E4E6" d="M260.892 329.535l.79 3.47.976 1.612 10.044 12.041 19.295 22.505 8.469 7.28 20.364 10.356 12.322 4.797 26.64 16.815 41.283 40.57 2.336 2.32-.192 6.088-15.948 1.77-42.665 13.19-4.245-9.35-8.42-17.044-4.451-6.032-3.555-3.975-2.927-2.377-6.004-3.112-2.43.043-11.438 5.96-10.998 2.255-5.812.635-4.174.065-2.222-.586-.876-.207-3.946-1.077-3.02-.864-12.195-8.3-12.792-11.064-11.34-14.989-10.413-16.173-3.96-12.755-1.183-12.826 19.296-8.565 22.665.414.555-4.64.178-18.235"/>
            <path stroke="#FFF" stroke-linejoin="round" stroke-width=".8" d="M260.892 329.535l.79 3.47.976 1.612 10.044 12.041 19.295 22.505 8.469 7.28 20.364 10.356 12.322 4.797 26.64 16.815 41.283 40.57 2.336 2.32-.192 6.088-15.948 1.77-42.665 13.19-4.245-9.35-8.42-17.044-4.451-6.032-3.555-3.975-2.927-2.377-6.004-3.112-2.43.043-11.438 5.96-10.998 2.255-5.812.635-4.174.065-2.222-.586-.876-.207-3.946-1.077-3.02-.864-12.195-8.3-12.792-11.064-11.34-14.989-10.413-16.173-3.96-12.755-1.183-12.826 19.296-8.565 22.665.414.555-4.64.178-18.235"/>
            <path fill="#99CA41" fill-opacity=".58" d="M203.847 191.408l-.441.114 2.849 33.125 4.537 4.254 47.687 29.827 3.155 1.014 7.087.614 4.146-2.363.05-.3 7.329 10.043-19.381 61.674-.185 18.237-.549 4.646-22.664-.414-19.296 8.565 1.183 12.82 3.96 12.76-2.75-2.654-9.416-9.18-13.177-14.36-1.873-2.783-3.227-14.91-16.667-81.724-.954-34.767.74-35.06 27.822.7"/>
            <path stroke="#FFF" stroke-linejoin="round" stroke-width=".8" d="M203.847 191.408l-.441.114 2.849 33.125 4.537 4.254 47.687 29.827 3.155 1.014 7.087.614 4.146-2.363.05-.3 7.329 10.043-19.381 61.674-.185 18.237-.549 4.646-22.664-.414-19.296 8.565 1.183 12.82 3.96 12.76-2.75-2.654-9.416-9.18-13.177-14.36-1.873-2.783-3.227-14.91-16.667-81.724-.954-34.767.74-35.06 27.822.7"/>
            <path fill="#99CA41" fill-opacity=".58" d="M225.312 131.171l10.813-2.49 1.503.477 9.915 8.337 8.39 13.383 2.85 7.009 53.634 32.81 85.252-24.402 17.08-6.474-.712 37.771-.876 52.147 2.685 3.276 18.427 16.808-.285-.214-96.656-2.562-3.006.485-2.03 2.506-1.645 1.284-8.17 3.262-4.473.571-32.38-2.54-5.328-4.647-7.33-10.043-13.775-54.666-32.786-49.776-1.068-22.198"/>
            <path stroke="#FFF" stroke-linejoin="round" stroke-width=".8" d="M225.312 131.171l10.813-2.49 1.503.477 9.915 8.337 8.39 13.383 2.85 7.009 53.634 32.81 85.252-24.402 17.08-6.474-.712 37.771-.876 52.147 2.685 3.276 18.427 16.808-.285-.214-96.656-2.562-3.006.485-2.03 2.506-1.645 1.284-8.17 3.262-4.473.571-32.38-2.54-5.328-4.647-7.33-10.043-13.775-54.666-32.786-49.776-1.068-22.198"/>
            <path fill="#99CA41" fill-opacity=".58" d="M280.593 267.826l5.328 4.647 32.38 2.54 4.473-.577 8.17-3.255 1.645-1.285 2.03-2.505 3.006-.478 96.656 2.555-3.405 2.52 3.22 16.558 27.365 77.813 33.384 16.58 2.35 3.769.834 17.672-3.041 9.343-5.47 4.418-.342 13.076.67 1.699 2.898 3.626 4.245 2.612-51.618-.571-23.334 1-18.498 17.743.185-6.088-2.336-2.306-41.284-40.583-26.639-16.802-12.322-4.803-20.364-10.364-8.462-7.28-19.295-22.498-10.05-12.048-.97-1.605-.797-3.476 19.38-61.675"/>
            <path stroke="#FFF" stroke-linejoin="round" stroke-width=".8" d="M280.27 267.86l5.329 4.646 32.38 2.541 4.473-.578 8.17-3.255 1.645-1.284 2.03-2.506 3.006-.478 96.655 2.555-3.404 2.52 3.22 16.559 27.365 77.813 33.384 16.58 2.35 3.768.834 17.673-3.041 9.343-5.47 4.418-.342 13.076.67 1.698 2.898 3.626 4.245 2.613-51.618-.571-23.335.999-18.497 17.743.185-6.088-2.336-2.305-41.284-40.584-26.639-16.801-12.322-4.804-20.364-10.363-8.462-7.28-19.296-22.498-10.05-12.048-.968-1.606-.798-3.476 19.38-61.675"/>
            <path fill="#E3E4E6" d="M574.09 78.686l67.61 80.004 66.683 64.78-.114.028-120.26 58.77-32.601 19.52 2.108.614 2.18 2.698 2.186 10.314-67.388 67.449-33.384-16.58-27.366-77.813-3.22-16.559 3.405-2.52.285.215 54.233-54.324 9.43-10.163 4.295-3.448 25.607-14.36 6.638.628 12.65-.707 14.331-1.97 12.443-6.923-.477-37.993.698-61.774"/>
            <path stroke="#FFF" stroke-linejoin="round" stroke-width=".8" d="M574.09 78.686l67.61 80.004 66.683 64.78-.114.028-120.26 58.77-32.601 19.52 2.108.614 2.18 2.698 2.186 10.314-67.388 67.449-33.384-16.58-27.366-77.813-3.22-16.559 3.405-2.52.285.215 54.233-54.324 9.43-10.163 4.295-3.448 25.607-14.36 6.638.628 12.65-.707 14.331-1.97 12.443-6.923-.477-37.993.698-61.774"/>
            <path fill="#E4E4E4" d="M708.387 223.47l-1.938-12.483 1.282-3.576 11.59-13.89 66.76-32.946 5.293 1.206 26.083 16.823 2.515 2.727 1.66.578 7.82 1.563 24.032.321 7.707-1.977 28.662-12.276 3.255-3.026 16.646-22.134 13.305-6.902 27.11 10.621 18.84 13.033 10.961 15.595-68.863 70.833-.349 21.155-16.631 24.938-27.922.35-73.45 75.721-23.348-18.264-8.71-7.452-25.009-56.507.805-1.37.007-.864-1.082-4.611-27.088-56.9.128-.028"/>
            <path fill="#E3E4E6" stroke="#FFF" stroke-linejoin="round" stroke-width=".8" d="M708.387 223.47l-1.938-12.483 1.282-3.576 11.59-13.89 66.76-32.946 5.293 1.206 26.083 16.823 2.515 2.727 1.66.578 7.82 1.563 24.032.321 7.707-1.977 28.662-12.276 3.255-3.026 16.646-22.134 13.305-6.902 27.11 10.621 18.84 13.033 10.961 15.595-68.863 70.833-.349 21.155-16.631 24.938-27.922.35-73.45 75.721-23.348-18.264-8.71-7.452-25.009-56.507.805-1.37.007-.864-1.082-4.611-27.088-56.9.128-.028"/>
            <path fill="#E3E4E6" d="M896.395-.778l-1.439 1.984-.277 9.857 3.426 29.57 14.039 13.312 8.74 4.254 6.58 2.248 11.632 2.92 10.186 4.09 7.172 3.14 11.902 6.66 10.478 12.968 26.66 52.132-1.424 29.57-10.392 13.248-3.611 3.932-10.122-12.462-10.962-15.602-18.832-13.019-27.117-10.628-13.298 6.902-16.653 22.134-3.255 3.033-28.655 12.27-7.707 1.976-24.032-.32-7.82-1.564-1.66-.585-2.522-2.72-26.076-16.815-5.292-1.228-66.762 32.954-11.581 13.896-1.297 3.576 1.945 12.483-66.69-64.78 35.214-38.97 13.391-22.261 21.953-38.543 21.724-33.888 28.256-40.97 5.171-4.26 5.185-3.212 28.783-11.777 34.26 24.003 3.135-2.684 16.973-10.991 12.921-5.075 10-.235 1.36.799 1.418 1.941L896.367-.87"/>
            <path stroke="#FFF" stroke-linejoin="round" stroke-width=".8" d="M896.395-.778l-1.439 1.984-.277 9.857 3.426 29.57 14.039 13.312 8.74 4.254 6.58 2.248 11.632 2.92 10.186 4.09 7.172 3.14 11.902 6.66 10.478 12.968 26.66 52.132-1.424 29.57-10.392 13.248-3.611 3.932-10.122-12.462-10.962-15.602-18.832-13.019-27.117-10.628-13.298 6.902-16.653 22.134-3.255 3.033-28.655 12.27-7.707 1.976-24.032-.32-7.82-1.564-1.66-.585-2.522-2.72-26.076-16.815-5.292-1.228-66.762 32.954-11.581 13.896-1.297 3.576 1.945 12.483-66.69-64.78 35.214-38.97 13.391-22.261 21.953-38.543 21.724-33.888 28.256-40.97 5.171-4.26 5.185-3.212 28.783-11.777 34.26 24.003 3.135-2.684 16.973-10.991 12.921-5.075 10-.235 1.36.799 1.418 1.941L896.367-.87"/>
            <path stroke="#FFF" stroke-linejoin="round" stroke-width=".8" d="M909.43-125.952l64.148 57.564 43.071 38.47 183.86 165.79 153.004 136.953-238.085 4.576-62.752-39.128-11.147-31.669-11.34-13.083-4.38-3.176-16.475-.978-19.267-.264 3.611-3.926 10.393-13.254 1.424-29.563-26.66-52.132-10.485-12.969-11.895-6.66-7.173-3.147-10.185-4.09-11.632-2.919-6.588-2.241-8.733-4.254-14.039-13.311-3.426-29.578.278-9.85 1.439-1.984 19.153-27.208 4.644-28.864-19.04-33.603-.476-3.255 1.923-16.038 6.83-16.209"/>
            <path stroke="#FFF" stroke-linejoin="round" stroke-width=".8" d="M830.211-197.173l79.22 71.225-6.831 16.209-1.916 16.03.47 3.255 19.039 33.604-4.644 28.864L896.396-.778l-14.944-26.637-1.424-1.942-1.353-.806-10.008.242-12.913 5.068-16.981 10.992-3.134 2.683-34.26-24.003-13.064-24.824.05-62.496 27.928-24.217 4.837-5.874 14.986-22.326.734-2.17-.584-9.079-1.874-5.91-4.18-5.082"/>
            <path fill="#E3E4E6" d="M801.38-35.193l-28.784 11.777-5.192 3.212-5.164 4.26-28.256 40.977-21.732 33.888-21.945 38.536-13.398 22.261-35.208 38.97-67.609-80.003-16.745-48.178 2.094 1.442 3.504 1.07 19.937-.835L635.626-.769l38.512-30.327 9.794-8.765 10.691-2.027 93.7-18.08 13.07 24.825"/>
            <path stroke="#FFF" stroke-linejoin="round" stroke-width=".8" d="M801.38-35.193l-28.784 11.777-5.192 3.212-5.164 4.26-28.256 40.977-21.732 33.888-21.945 38.536-13.398 22.261-35.208 38.97-67.609-80.003-16.745-48.178 2.094 1.442 3.504 1.07 19.937-.835L635.626-.769l38.512-30.327 9.794-8.765 10.691-2.027 93.7-18.08 13.07 24.825"/>
            <path fill="#E3E4E6" d="M788.358-122.515l-.05 62.496-93.7 18.072-10.69 2.034-9.795 8.765L635.618-.821l-52.751 32.953-19.93.835-3.511-1.07-2.094-1.442-7.4-23.482.47-68.063 23.134-3.17 76.413 5.718 11.467-.05 17.75-2.462 48.107-10.093 12.907-5.61 48.164-45.815"/>
            <path stroke="#FFF" stroke-linejoin="round" stroke-width=".8" d="M788.358-122.515l-.05 62.496-93.7 18.072-10.69 2.034-9.795 8.765L635.618-.821l-52.751 32.953-19.93.835-3.511-1.07-2.094-1.442-7.4-23.482.47-68.063 23.134-3.17 76.413 5.718 11.467-.05 17.75-2.462 48.107-10.093 12.907-5.61 48.164-45.815"/>
            <g>
                <path fill="#E3E4E6" d="M557.349 30.508l16.745 48.178-.698 61.767.47 37.993-12.443 6.923-14.324 1.977-12.657.7-6.631-.628-25.607 14.368-4.302 3.44-9.43 10.164-54.226 54.33-18.426-16.816-2.686-3.276.877-52.146.712-37.765-4.587-88.775 7.016-16.388 19.053-34.51 5.52-1.42 4.694.692 4.637 5.982 5.563 3.09 12.457-.086 44.268-6.045 1.567-.692L530.147 11.5l19.787-4.518 7.408 23.482"/>
                <path stroke="#FFF" stroke-linejoin="round" stroke-width=".8" d="M557.349 30.508l16.745 48.178-.698 61.767.47 37.993-12.443 6.923-14.324 1.977-12.657.7-6.631-.628-25.607 14.368-4.302 3.44-9.43 10.164-54.226 54.33-18.426-16.816-2.686-3.276.877-52.146.712-37.765-4.587-88.775 7.016-16.388 19.053-34.51 5.52-1.42 4.694.692 4.637 5.982 5.563 3.09 12.457-.086 44.268-6.045 1.567-.692L530.147 11.5l19.787-4.518 7.408 23.482"/>
            </g>
            <path fill="#99CA41" fill-opacity=".58" d="M238.104 78.135l24.21 7.33 12.935.393 54.411-.706 3.576-.486 3.084-1.085 1.823-1.998 1.34-2.884 8.504 12.427 2.913 2.348 6.731.956 2.878-.021 9.509-2.156 9.865-5.76 4.829-5.096.627-2.455-.442-4.525.684-2.241 1.524-1.264 2.7-.692 14.43-1.078 4.922 1.157 1.004.749 4.587 88.776-17.08 6.473-85.245 24.403-53.641-32.81-2.85-7.017-8.39-13.375-9.908-8.344-1.51-.471-10.812 2.49-11.076-4.446-14.117-18.05 29.089-14.69 4.48-3.74 5.292-6.887.121-2.234z"/>
            <path stroke="#FFF" stroke-linejoin="round" stroke-width=".8" d="M238.104 78.135l24.21 7.33 12.935.393 54.411-.706 3.576-.486 3.084-1.085 1.823-1.998 1.34-2.884 8.504 12.427 2.913 2.348 6.731.956 2.878-.021 9.509-2.156 9.865-5.76 4.829-5.096.627-2.455-.442-4.525.684-2.241 1.524-1.264 2.7-.692 14.43-1.078 4.922 1.157 1.004.749 4.587 88.776-17.08 6.473-85.245 24.403-53.641-32.81-2.85-7.017-8.39-13.375-9.908-8.344-1.51-.471-10.812 2.49-11.076-4.446-14.117-18.05 29.089-14.69 4.48-3.74 5.292-6.887.121-2.234-.997-2.99"/>
            <path fill="#E3E4E6" d="M805.971-240.646l-34.908.07-2.358 3.049-.021 3.911-3 2.32-4.679 2.498-13.982 2.305-52.266 11.377-10.05 14.054-5.108 4.068-11.033 5.182-1.959.5-3.383-1.007-17.978-10.549-4.345-3.026-2.827-2.798-4.245-5.396-9.474-5.81-6.496-1.877-1.802-.257-10.57 2.148-31.304 13.74-23.733 13.868-4.01 5.567-2.928 16.167-20.528 43.06 27.43 66.45 23.135-3.176 76.427 5.717 11.453-.043 17.75-2.463 48.1-10.092 12.914-5.617 48.164-45.808 27.935-24.218 4.836-5.874 14.987-22.326.726-2.162-.577-9.086-1.88-5.91-4.174-5.082-24.239-43.496z"/>
            <path stroke="#FFF" stroke-linejoin="round" stroke-width=".8" d="M805.97-240.663l24.238 43.489 4.174 5.089 1.88 5.902.585 9.086-.734 2.163-14.986 22.326-4.836 5.881-27.936 24.21-48.157 45.809-12.913 5.617-48.107 10.092-17.75 2.463-11.454.05-76.427-5.717-23.134 3.169-27.423-66.443 20.52-43.067 2.921-16.16 4.017-5.567 23.733-13.875 31.312-13.74 10.563-2.14 1.81.256 6.488 1.877 9.473 5.81 4.252 5.389 2.821 2.805 4.352 3.019 17.97 10.55 3.391 1.006 1.952-.5 11.04-5.182 5.1-4.068 10.05-14.054 52.267-11.377 13.989-2.305 4.672-2.498 3-2.32.028-3.919 2.35-3.04 34.909-.072"/>
            <g>
                <path fill="#E3E4E6" d="M437.834-136.016l85.152 8.536 27.43 66.443-.47 68.063-19.787 4.518-15.235 10.063-1.568.693-44.267 6.038-12.451.093-5.577-3.098-4.63-5.974-4.694-.7-5.52 1.421-19.053 34.51-7.016 16.394-1.012-.749-4.921-1.163-14.431 1.077-2.693.693-1.53 1.263-.685 2.241.45 4.525-.635 2.456-4.83 5.096-9.864 5.76-9.509 2.155-2.87.022-6.739-.95-2.913-2.355-8.497-12.426 15.641 2.326 22.501-8.229 19.552-34.281L408.46-.083l14.081-10.963 3.975-4.026 5.541-27.515-.484-45.68-.491-3.319-.706-1.334-13.134-13.676-8.825-30.42 29.396.921"/>
                <path stroke="#FFF" stroke-linejoin="round" stroke-width=".8" d="M437.834-136.016l85.152 8.536 27.43 66.443-.47 68.063-19.787 4.518-15.235 10.063-1.568.693-44.267 6.038-12.451.093-5.577-3.098-4.63-5.974-4.694-.7-5.52 1.421-19.053 34.51-7.016 16.394-1.012-.749-4.921-1.163-14.431 1.077-2.693.693-1.53 1.263-.685 2.241.45 4.525-.635 2.456-4.83 5.096-9.864 5.76-9.509 2.155-2.87.022-6.739-.95-2.913-2.355-8.497-12.426 15.641 2.326 22.501-8.229 19.552-34.281L408.46-.083l14.081-10.963 3.975-4.026 5.541-27.515-.484-45.68-.491-3.319-.706-1.334-13.134-13.676-8.825-30.42 29.396.921"/>
            </g>
            <g>
                <path fill="#E3E4E6" d="M203.812 46.407l52.944 1.535.327-3.084-.89-1.277-.862.228-1.773-1.506-1.517-2.305-.036-2.877 3.447-41.111 35.25.75.428-2.863-.363-2.805-1.111-5.631-.883-2.556-2.9-6.787-9.451-14.74-.292-1.534-.086-2.162 5.663-23.483.855-1.663 11.424-.978 86.37-4.717 3.57 3.504.242.95.242 11.769-1.297 56.307L408.5.064l-11.304 38.528-19.545 34.281-22.508 8.23-15.634-2.32-1.346 2.883-1.824 1.999-3.077 1.085-3.575.478-54.418.714-12.928-.4-24.217-7.323-33.385-30.013-.904-1.713"/>
                <path stroke="#FFF" stroke-linejoin="round" stroke-width=".8" d="M203.812 46.407l52.944 1.535.327-3.084-.89-1.277-.862.228-1.773-1.506-1.517-2.305-.036-2.877 3.447-41.111 35.25.75.428-2.863-.363-2.805-1.111-5.631-.883-2.556-2.9-6.787-9.451-14.74-.292-1.534-.086-2.162 5.663-23.483.855-1.663 11.424-.978 86.37-4.717 3.57 3.504.242.95.242 11.769-1.297 56.307L408.5.064l-11.304 38.528-19.545 34.281-22.508 8.23-15.634-2.32-1.346 2.883-1.824 1.999-3.077 1.085-3.575.478-54.418.714-12.928-.4-24.217-7.323-33.385-30.013-.904-1.713"/>
            </g>
            <g fill="#99CA41" fill-opacity=".58" stroke="#FFF" stroke-linejoin="round" stroke-width=".8">
                <path d="M203.847 191.408l-27.828-.7-.071-.271-.92-4.882-1.48-18.522 2.4-2.348 10.605-5.068 9.516-1.727 4.737-.064 2.258 1.984 3.07 4.882 3.362 18.929-.242 4.853-5.42 2.877"/>
            </g>
            <g>
                <path fill="#99CA41" fill-opacity=".58" d="M55.967-3.64l2.543-2.297 19.758-4.654 2.087.043 67.032 48.02 35.044 23.44-2.863 24.874-1.68 30.905-.058 2.598 2.308 2.149 5.3 3.961 5.726 5.646 2.286 3.097.143.964-10.734 17.7-6.61.836-4.552-1.035-3.397-1.913-99.05-68.277L64.572 11.4 62.35 5.825l-4.751-7.237-1.66-2.334"/>
                <path stroke="#FFF" stroke-linejoin="round" stroke-width=".8" d="M55.967-3.64l2.543-2.297 19.758-4.654 2.087.043 67.032 48.02 35.044 23.44-2.863 24.874-1.68 30.905-.058 2.598 2.308 2.149 5.3 3.961 5.726 5.646 2.286 3.097.143.964-10.734 17.7-6.61.836-4.552-1.035-3.397-1.913-99.05-68.277L64.572 11.4 62.35 5.825l-4.751-7.237-1.66-2.334"/>
            </g>
            <g>
                <path fill="#E3E4E6" d="M212.834-182.936l26.369 8.55 28.227 60.526 7.422 17.23 1.98 6.33 5.705 22.755-.854 1.663-5.663 23.49.093 2.155.292 1.534 9.452 14.74 2.891 6.787.89 2.555 1.105 5.632.363 2.805-.42 2.862-35.258-.75-3.447 41.112.042 2.876 1.518 2.306 1.773 1.506.862-.221.89 1.27-.334 3.083-52.944-1.534 9.887-.7 4.366-14.103-1.282-7.316-2.08-7.23-9.388-24.389-31.725-54.644-16.254-23.775-4.473-20.642.57-14.41 40.984-11.128 21.767-30.748 1.639-4.825-4.986-15.431"/>
                <path stroke="#FFF" stroke-linejoin="round" stroke-width=".8" d="M212.834-182.936l26.369 8.55 28.227 60.526 7.422 17.23 1.98 6.33 5.705 22.755-.854 1.663-5.663 23.49.093 2.155.292 1.534 9.452 14.74 2.891 6.787.89 2.555 1.105 5.632.363 2.805-.42 2.862-35.258-.75-3.447 41.112.042 2.876 1.518 2.306 1.773 1.506.862-.221.89 1.27-.334 3.083-52.944-1.534 9.887-.7 4.366-14.103-1.282-7.316-2.08-7.23-9.388-24.389-31.725-54.644-16.254-23.775-4.473-20.642.57-14.41 40.984-11.128 21.767-30.748 1.639-4.825-4.986-15.431"/>
            </g>
            <path fill="#E3E4E6" d="M-29.038-171.945l-32.195 7.994-9.195 2.948 21.995 23.068 74.952 83.401L55.965-3.65 58.5-5.956l19.758-4.646 2.087.042 67.04 48.021 35.036 23.44 22.287-12.805-.904-1.72 9.886-.692 4.366-14.111-1.289-7.309-2.08-7.23-9.38-24.389-31.725-54.651-16.254-23.768-4.473-20.642.57-14.417-46.434-60.64-64.24-2.791-71.79 12.32zm-41.405 10.95l.015-.008-.015-.014v.021z"/>
            <path stroke="#FFF" stroke-linejoin="round" stroke-width=".8" d="M-70.441-161l9.21-2.949 32.187-8 71.798-12.32 64.24 2.798 46.433 60.64-.57 14.417 4.473 20.635 16.254 23.775L205.31-7.353l9.38 24.389 2.08 7.223 1.29 7.316-4.367 14.11-9.886.693.905 1.72-22.287 12.805-35.037-23.44-67.04-48.028-2.087-.035L58.51-5.954l-2.543 2.298L26.521-54.53l-74.953-83.409-22.01-23.075"/>
            <g>
                <path fill="#E3E4E6" d="M226.926-201.972l124.934 2.72 56.576 62.324 8.832 30.42 13.127 13.668.705 1.334.492 3.32.491 45.68-5.556 27.514-3.967 4.026L408.478-.003 383.1-.696l1.296-56.307-.249-11.77-.235-.95-3.576-3.504-86.37 4.718-11.425.978-5.705-22.754-1.98-6.331-7.422-17.23-28.22-60.533-26.376-8.55 14.088-19.029"/>
                <path stroke="#FFF" stroke-linejoin="round" stroke-width=".8" d="M226.926-201.972l124.934 2.72 56.576 62.324 8.832 30.42 13.127 13.668.705 1.334.492 3.32.491 45.68-5.556 27.514-3.967 4.026L408.478-.003 383.1-.696l1.296-56.307-.249-11.77-.235-.95-3.576-3.504-86.37 4.718-11.425.978-5.705-22.754-1.98-6.331-7.422-17.23-28.22-60.533-26.376-8.55 14.088-19.029"/>
            </g>
        </g>
        <text fill="#0B1004" font-family="OpenSans-Regular, Open Sans" font-size="18" mask="url(#b)">
            <tspan x="73" y="180">San Francisco</tspan>
        </text>
        <text fill="#0B1004" font-family="OpenSans-Regular, Open Sans" font-size="18" mask="url(#b)">
            <tspan x="101" y="78">Marin</tspan>
        </text>
        <text fill="#0B1004" font-family="OpenSans-Regular, Open Sans" font-size="18" mask="url(#b)">
            <tspan x="206.325" y="276">San</tspan> <tspan x="195" y="298">Mateo</tspan>
        </text>
        <text fill="#0B1004" font-family="OpenSans-Regular, Open Sans" font-size="18" mask="url(#b)">
            <tspan x="313" y="343">Santa Clara</tspan>
        </text>
        <text fill="#0B1004" font-family="OpenSans-Regular, Open Sans" font-size="18" mask="url(#b)">
            <tspan x="275" y="139">Contra Costa</tspan>
        </text>
        <text fill="#0B1004" font-family="OpenSans-Regular, Open Sans" font-size="18" mask="url(#b)">
            <tspan x="293" y="225">Alameda</tspan>
        </text>
    </g>
</svg>
