<svg xmlns="http://www.w3.org/2000/svg" width="226" height="26" viewBox="0 0 226 26">
    <g fill="#A7A7A7" fill-rule="evenodd">
        <path d="M26.338 10.62c.566.292 1.018.88 1.018 1.969v5.645c0 .97.822 1.764 1.839 2.44l.48-.528c-.762-.588-1.64-1.03-1.64-2.177v-5.525c0-1.413-.594-2.12-1.16-2.355l-.537.53zm4.893 0c.621.322 1.33.734 1.33 2.086v4.618c0 1.616 1.074 2.586 2.149 3.35l.51-.56c-.821-.556-1.98-1.408-1.98-2.82V12.41c0-1.41-.879-2.116-1.413-2.35l-.596.558zM28.488 8c.962.325 2.12 1.53 2.205 2.765L33.465 8s.822.53 1.499 1.295c.566.619.934 1.5.934 2.47v5.174c0 1.09.79 1.325 1.102 1.59L34.737 21s-.82-.5-1.526-1.296c-.564-.646-.904-1.383-.904-2.35v-4.53c0-1.412-.736-1.735-1.274-1.97l-.34.294v5.94c0 1.058.596 1.206.848 1.47L29.195 21s-2.092-1.208-2.092-2.706v-5.735c0-1.205-.566-1.528-1.103-1.881L28.488 8zM18.283 10.801c-.424-.117-.902-.618-.902-.618l-.564.56c.17.296.79.619 1.522.647.507.03 1.126-.264 1.353-.382l-.028-.089c-.283.09-.874.03-1.381-.118zm2.534-.324c.62.324.678.825.678 1.916v5.66c0 1.032.985 2.004 2 2.652l.563-.588c-.76-.472-1.889-1.092-1.889-2.24v-5.422c0-1.416-.112-2.154-.816-2.48l-.536.502zm-4.338 4.54c-.14.265-.225.973-.225 1.443.03 2.447 1.605 3.683 2.197 4.187l.649-.708c-.649-.442-1.465-1.207-1.859-1.945-.34-.618-.847-1.857-.704-3.037l-.058.06zm4.762 2.624v-4.746c-.254.03-1.239-.119-1.719.205-.339.237-1.014.974-.732 2.33.28 1.385 1.634 2.327 2.085 2.564l.366-.353zM18.481 21C17.55 20.235 16 18.967 16 16.343c0-2.063 1.661-4.097 4.987-3.773h.254c0-.472.112-1.74-.677-1.917-.028.031-.956.974-2.17.974-1.182 0-1.661-.56-1.915-.855L19.24 8c.424.739 1.072 1.386 1.972 1.386.478 0 1.127-.499 1.776-1.386-.058 0 1.829.356 1.829 3.656v4.922c0 1.063.874 1.653 1.183 1.83L23.522 21s-2.254-1.207-2.254-2.8v-.206L18.48 21zM66.246 12.431l.568-.556-1.56-1.675-.541.557 1.533 1.674zm-5.905-1.79c.54.294 1.022.879 1.022 1.966v5.547c0 1.144 1.221 2.023 2.1 2.522l.54-.557c-.766-.44-1.96-1.027-1.96-2.171v-5.489c0-1.408-.567-1.905-1.248-2.287l-.454.47zm4.372.529v5.516c0 1.087 1.023 1.556 1.278 1.731L63.49 21s-2.384-1.203-2.384-2.699v-5.724c0-1.142-.624-1.554-1.107-1.876L62.498 8c.853.293 1.931 1.261 2.158 2.347L67.014 8 69 10.142l-2.782 2.642-1.505-1.614zM96.199 10.271v.913c.311.118.51.178.85.178.454 0 1.106-.266 1.445-.5v-.06c-.51.03-.791.088-1.274-.03-.397-.088-.795-.353-1.021-.5zm-3.83 1.622c.539.324.482.855.482 1.179v4.304c0 1.62.908 2.535 2.41 3.329l.482-.529c-.934-.56-2.21-1.21-2.21-2.8v-4.658c0-.263-.115-1.09-.71-1.298l-.453.473zM96.88 8c.396.385.766.916 1.814 1.005.37.03.88-.118 1.221-.413l.086.058c-.058.973-.74 2.063-1.562 2.565-.454.266-1.56.648-2.24.235v5.542c0 .44.426 1.062 1.022 1.062.538 0 .82-.354 1.218-.738l.199.207L95.29 21s-1.076-.47-1.787-1.267c-.566-.648-.908-1.208-.908-2.386V13.1c0-.5-.084-.943-.595-1.09v-.086l1.56-1.593c-.028-.03 2.043.235 3.319-2.331zM46.527 4.07c.41-.25.967-.311 1.437-.343 1.262-.063 2.847.684 4.403.684 1.319 0 2.317-.498 2.67-.652l-.03-.126c-.792.063-1.615 0-2.671-.186-1.525-.281-3.199-.622-3.814-.622-1.144 0-1.908.497-2.083 1.244h.088zM58 1.172c-1.144 1.993-3.081 3.519-5.633 3.519-2.143 0-2.614-.685-4.374-.685-1.584 0-2.553.998-2.436 1.993H45.5C45.205 5.566 45 4.942 45 4.226c.03-1.589 1.497-3.021 3.55-3.208 1.88-.156 5.283.746 6.955.716 1.029-.031 1.967-.31 2.377-.655l.118.094z"/>
        <path d="M57.874 11.262h.426l.77-.868h-1.196v.868zm-13.222 8.813l.03.058c.712-.779 2.051-1.04 2.906-1.069 2.506-.057 4.9 1.967 5.499 2.514l.857-.635c-1.255-1.33-3.308-2.658-6.185-2.658-1.083 0-2.564.606-3.107 1.79zm13.45-16.82l-.257.23v.985c.4.143 1.225.259 1.995.143.797-.143 1.567-.492 1.709-.606l.028-.087c-1.282.116-2.308-.059-3.474-.666zm-3.135 2.022l-.77.753v11.213s.257.174.4.288c.142.119.37.377.37.377V5.278zM64 1.058c-.4 2.224-2.194 3.47-4.16 3.817-.684.115-1.224.085-1.966-.058v2.802h4.046l-3.504 3.903h-.542v2.975c0 1.157-.513 2.805-1.482 4.278-.854 1.331-2.222 2.37-3.361 3.151 0 0-2.566-2.572-5.443-2.572-1.34 0-3.619.721-3.619 2.832 0 1.734 1.993 3.439 4.787 3.439 1.88 0 2.763-.607 3.391-.926l.17.232C51.893 25.22 50.609 26 48.7 26c-3.164 0-5.7-1.704-5.7-4.798 0-3.265 3.163-5.375 6.383-5.375 1.452 0 2.28.203 4.56 1.243V5.884l1.565-1.53c.542-.146 1.254-.318 2.167-1.1.94-.808 1.594-2.022 1.594-2.022.571.548 1.881 1.069 2.508 1.04 1.282-.086 1.71-.635 2.08-1.272l.143.058zM100.341 10.684c.541.295 1.024.883 1.024 1.974v5.6c0 1.032 1.252 1.946 2.106 2.447l.539-.589c-.768-.59-1.963-1.12-1.963-2.268V12.51c0-1.327-.596-2.034-1.222-2.299l-.484.472zm4.379 6.013c0 1.15 1.024 1.562 1.28 1.737L103.498 21s-2.389-1.18-2.389-2.681v-5.69c0-1.148-.625-1.561-1.109-1.885L102.503 8c.968.385 2.217 1.386 2.217 2.861v5.836z"/>
        <path d="M111.555 17.877c.178.086.327.235.327.235v-3.597c0-.147.03-.382-.087-.472-.062-.029-.12-.088-.178-.088l-.447.178v3.566s.237.088.385.178zm-5.134-6.604c.299.208.299.412.299.737v1.652c0 .559 0 .912.177 1.12.357.412 1.216.147 1.216.147-.563-.325-.682-.618-.682-1.24v-1.914c0-.266 0-.825-.534-.944l-.476.442zm3.651-1.268v.975c.415.146 1.039.204 1.396.204.475 0 1.186-.145 1.543-.412v-.059c-.625 0-1.1.088-1.693-.087-.503-.148-1.038-.471-1.246-.62zm-.237 10.583s.119-.208.207-.353c.09-.148.238-.354.238-.354-.297-.236-.8-.739-1.721-.739-1.187 0-1.574.562-1.633.708l.059.031c.535-.236 1.218-.12 1.812.058.504.148.86.441 1.038.649zm.06.412c-.03-.029-.06 0-.06 0-.325-.382-.86-.884-1.9-.973-.385-.029-1.394-.058-1.78.973h-.09c-.355-1.355.802-2.888 2.138-3.359 1.483-.532 2.7-.09 2.7-.09v-3.302c-1.246.414-2.7 1.181-3.71.974-.415-.089-.742-.355-.742-1.03v-2.242c0-.205 0-.266-.058-.384a.55.55 0 0 0-.267-.205v-.09l1.246-1.206s2.226.147 3.976-2.066c.416.356.8.916 1.9 1.005.385.03 1.306-.089 1.662-.443l.09.058c-.06.973-1.337 2.181-2.226 2.564-1.426.62-2.702.089-2.702.089v2.212c1.661-.266 3.384-1.21 4.008-1.003.385.118.623.266.623 1.03v4.038s-.713.03-1.13.15c-.324.087-.682.236-1.215.559-1.604.972-2.463 2.712-2.463 2.741zM100.33 4.395l1.265 1.275.531-.511-1.29-1.3-.506.536zM102.38 2L104 3.63 101.595 6 100 4.395 102.38 2zM80.34 10.62c.564.292 1.018.88 1.018 1.969v5.645c0 .97.82 1.764 1.839 2.44l.479-.528c-.763-.588-1.64-1.03-1.64-2.177v-5.525c0-1.413-.594-2.12-1.16-2.355l-.537.53zm4.892 0c.622.322 1.328.734 1.328 2.086v4.618c0 1.616 1.075 2.586 2.15 3.35l.508-.56c-.819-.556-1.979-1.408-1.979-2.82V12.41c0-1.41-.877-2.116-1.413-2.35l-.594.558zM82.488 8c.962.325 2.122 1.53 2.207 2.765L87.467 8s.818.53 1.496 1.295c.565.619.934 1.5.934 2.47v5.174c0 1.09.794 1.325 1.103 1.59L88.738 21s-.82-.5-1.527-1.296c-.566-.646-.905-1.383-.905-2.35v-4.53c0-1.412-.734-1.735-1.273-1.97l-.338.294v5.94c0 1.058.592 1.206.848 1.47L83.197 21s-2.094-1.208-2.094-2.706v-5.735c0-1.205-.565-1.528-1.103-1.881L82.488 8zM71.281 10.801c-.422-.117-.901-.618-.901-.618l-.564.56c.17.296.789.619 1.522.647.507.03 1.126-.264 1.35-.382l-.027-.089c-.282.09-.873.03-1.38-.118zm2.536-.324c.62.324.675.825.675 1.916v5.66c0 1.032.986 2.004 2.001 2.652l.563-.588c-.76-.472-1.887-1.092-1.887-2.24v-5.422c0-1.416-.114-2.154-.817-2.48l-.535.502zm-4.337 4.54c-.141.265-.226.973-.226 1.443.027 2.447 1.605 3.683 2.197 4.187l.647-.708c-.647-.442-1.464-1.207-1.859-1.945-.337-.618-.844-1.857-.704-3.037l-.055.06zm4.759 2.624v-4.746c-.254.03-1.239-.119-1.717.205-.339.237-1.014.974-.734 2.33.283 1.385 1.635 2.327 2.084 2.564l.367-.353zM71.478 21C70.549 20.235 69 18.967 69 16.343c0-2.063 1.663-4.097 4.985-3.773h.254c0-.472.113-1.74-.677-1.917-.026.031-.956.974-2.168.974-1.183 0-1.662-.56-1.914-.855L72.24 8c.421.739 1.07 1.386 1.972 1.386.477 0 1.126-.499 1.774-1.386-.057 0 1.83.356 1.83 3.656v4.922c0 1.063.873 1.653 1.184 1.83L76.52 21s-2.252-1.207-2.252-2.8v-.206L71.478 21zM157.38 4.649c.5.286.764.999.764 2.053v9.89c0 .997.85 1.767 1.906 2.423l.557-.57c-.792-.57-1.76-.998-1.76-2.108V6.559c0-1.367-.351-2.108-.995-2.366l-.472.456zm4.81 4.647c.644.285 1.351.854 1.351 2.11V21.75c0 1.257 0 1.626-.323 2.223h.058c.44-.255.967-.798.967-2.593V11.176c0-1.367-.821-2.165-1.495-2.393l-.558.513zM159.697 2c.968.313 1.908 1.625 1.908 3.334v4.161l2.872-2.68s.853.543 1.555 1.283c.587.599.968 1.454.968 2.395v8.664c0 .314-.088 5.843-4.662 5.843-1.79 0-2.347-1.396-2.347-1.396l.205-.143s.498.97 1.671.97c1.528 0 1.409-1.684 1.409-2.596V11.518c0-1.337-.821-1.822-1.32-1.995l-.351.314v5.728c0 1.027.615 1.17.88 1.427l-2.435 2.365s-2.17-1.17-2.17-2.622V6.674c0-1.113-.382-1.683-.88-1.995L159.697 2z"/>
        <path d="M148.08 5.692s.174.173.231.29c.117.228.117.373.117.631v5.838c-.349.173-.64.375-.869.605-.319.346-.666.919-.61 1.553l.058.086s.493-.805 1.218-1.15c.405-.2.928-.29 1.1-.316V6.383c0-.373-.088-.66-.232-.977-.087-.202-.433-.432-.433-.432l-.58.718zm4.083-.89s.492.23 1.595.203c.838-.03 1.823-.346 2.198-.519l.03-.058c-.635 0-1.447-.172-2.085-.345-.548-.173-1.071-.49-1.303-.604l-.435.287v1.036zm-8.863-.374l-.087-.058c-1.565 1.554-2.895 4.402-2.895 7.45 0 4.744 2.982 8.167 6.4 9.374 2.753.98 5.241.26 5.736.086l.088-.114c-1.276.086-4.317-.115-6.142-1.121-2.173-1.21-3.304-2.446-4.258-4.457-.782-1.64-.956-4.23-.694-6.011.519-3.423 1.852-5.149 1.852-5.149zm9.123-3.163l-.027.115c-1.216 0-2.869.144-4.607 1.323-2.315 1.58-3.676 4.458-3.706 7.19-.03 4.082 2.317 6.758 2.983 7.044-.26-.516-.464-1.437-.464-2.185 0-1.465 1.043-2.271 1.565-2.501V6.846c0-.29.028-.463-.088-.75-.088-.23-.347-.345-.347-.345v-.059l1.535-1.839c1.073.028 2.145-.144 2.725-.432.75-.374 1.968-2.185 1.968-2.185.868.719 1.447 1.12 2.664 1.18 1.16.057 1.941-.75 2.231-1.353l.145.058c-.378 1.754-1.245 3.077-3.215 3.767-2.231.776-3.622.23-3.622.23v8.57c0 .403.03.777-.204 1.007-.434.402-1.476-.143-2.432.143-.956.29-2.172 1.41-2.084 2.358 0 0 1.592 1.209 4.78 1.209 2.49 0 3.706-.748 5.242-1.926l.115.085C156.105 20.16 153.003 22 149.614 22 144.631 22 140 17.8 140 11.79c0-5.407 3.938-9.72 8.254-10.554 2.866-.547 4.17.029 4.17.029zM127.068 10.245v.886c.288.178.577.296.836.532.432.386.692.887.692 1.596v4.52l.635.503.057-.058V13.14c0-.915-.259-1.448-.721-1.948-.605-.682-1.5-.947-1.5-.947zm-3.72 1.714c.375.237.319.827.319 1.153v3.84c0 1.567 1.814 2.806 3.372 3.722l.49-.533c-.953-.558-3.172-1.713-3.172-3.305v-4.08c0-.266 0-1.123-.52-1.298l-.49.501zm4.988 5.642V13.32c0-1.094-.634-1.508-1.268-1.86v4.313c0 .442.288 1.004.75 1.419.201.176.317.265.518.41zm3.664-.886s-1.673 1.125-2.596 1.922c-.952.798-2.336 2.363-2.336 2.363s-1.789-.975-2.509-1.773c-.578-.65-1.153-1.24-1.153-2.391v-3.783c0-.651-.116-.887-.406-1.004v-.09l1.587-1.597c-.028-.029 2.193-.47 4.182-2.362.434.325.895.649 1.5 1.122.577.443 1.731 1.006 1.731 2.365v5.228zM119.198 10.271v.913c.312.118.51.178.851.178.454 0 1.106-.266 1.446-.5v-.06c-.51.03-.793.088-1.277-.03-.396-.088-.791-.353-1.02-.5zm-3.83 1.622c.538.324.482.855.482 1.179v4.304c0 1.62.91 2.505 2.412 3.329l.482-.529c-.937-.56-2.214-1.21-2.214-2.8v-4.658c0-.263-.112-1.09-.709-1.298l-.453.473zM119.878 8c.4.385.766.916 1.817 1.005.368.03.88-.118 1.22-.413l.085.058c-.057.973-.738 2.063-1.56 2.565-.455.266-1.561.648-2.242.235v5.542c0 .44.424 1.062 1.02 1.062.541 0 .824-.354 1.221-.738l.2.207L118.29 21s-1.079-.47-1.788-1.267c-.568-.648-.909-1.208-.909-2.386V13.1c0-.5-.086-.943-.594-1.09v-.086l1.558-1.593c-.028-.03 2.043.235 3.32-2.331zM174.246 11.433l.569-.559-1.562-1.673-.54.557 1.533 1.675zM168.34 9.64c.54.294 1.023.881 1.023 1.967v5.546c0 1.143 1.22 2.025 2.1 2.523l.54-.557c-.766-.44-1.96-1.027-1.96-2.17V11.46c0-1.408-.566-1.906-1.248-2.288l-.455.468zm4.372.53v5.516c0 1.086 1.024 1.555 1.278 1.73L171.49 20s-2.382-1.204-2.382-2.7v-5.722c0-1.145-.625-1.556-1.109-1.877L170.498 7c.852.295 1.93 1.262 2.158 2.348L175.012 7 177 9.142l-2.781 2.64-1.506-1.612zM180.065 10.246v.885c.288.177.577.295.837.533.432.383.693.885.693 1.595v4.521l.635.502.058-.06V13.14c0-.915-.26-1.448-.722-1.95-.606-.679-1.501-.944-1.501-.944zm-3.72 1.715c.377.234.316.826.316 1.15v3.84c0 1.567 1.82 2.808 3.375 3.723l.49-.531c-.95-.563-3.172-1.713-3.172-3.309v-4.077c0-.265 0-1.123-.517-1.301l-.492.505zm4.99 5.639v-4.282c0-1.093-.635-1.507-1.27-1.862v4.314c0 .442.288 1.003.752 1.418.2.178.318.265.517.412zm3.665-.884s-1.672 1.122-2.596 1.92c-.952.797-2.34 2.364-2.34 2.364s-1.787-.976-2.507-1.774c-.576-.65-1.152-1.24-1.152-2.392v-3.783c0-.65-.12-.885-.405-1.004v-.086l1.586-1.597c-.029-.03 2.19-.475 4.184-2.364.43.326.894.65 1.496 1.123.578.443 1.734 1.004 1.734 2.363v5.23zM212.41 5.553c.503.28.799.869.799 1.907v9.819c0 1.094 1.115 1.767 2.171 2.412l.532-.505c-.795-.561-2.003-1.01-2.003-2.159V7.375c0-1.346-.38-2.047-1.055-2.271l-.443.449zm4.268 10.323c0 1.18 1.056 1.516 1.322 1.656L215.412 20s-2.47-1.152-2.47-2.582V7.433c0-1.095-.383-1.545-.942-1.852L214.589 3c1 .308 2.089 1.628 2.089 2.86v10.016zM221.97 10.275v1.092l1.21 1.714.564-.473-1.718-2.392-.055.06zm-3.647 1.654c.508.325.481.857.481 1.183v4.196c0 1.654.886 2.57 2.284 3.366l.51-.533c-.887-.529-2.15-1.09-2.15-2.894v-4.49c0-.267-.132-1.152-.697-1.299l-.428.471zm4.643 1.33l-.995-1.388v2.186l.995-.798zm-.995 1.182v2.482c0 .444.405 1.064.968 1.064.511 0 .777-.354 1.153-.74l.244.237-3.22 3.516s-1.05-.5-1.72-1.299c-.537-.65-.832-1.477-.832-2.425v-4.224c0-.502-.188-.916-.564-1.004v-.089l1.474-1.596c-.026-.03 2.42.03 3.84-2.363 0 0 .43.62 1.157 1.42.616.677 1.286 1.505 1.529 1.74 0 0-3.329 2.69-4.03 3.281zM208.197 10.271v.913c.312.118.513.178.852.178.455 0 1.107-.266 1.448-.5v-.06c-.512.03-.794.088-1.279-.03-.394-.088-.792-.353-1.02-.5zm-3.828 1.622c.54.324.484.855.484 1.179v4.304c0 1.62.933 2.535 2.41 3.329l.483-.529c-.936-.56-2.213-1.21-2.213-2.8v-4.658c0-.263-.114-1.09-.709-1.298l-.455.473zM208.88 8c.398.385.767.916 1.816 1.005.368.03.878-.118 1.22-.413l.084.058c-.055.973-.74 2.063-1.56 2.565-.455.266-1.56.648-2.243.235v5.542c0 .44.426 1.062 1.021 1.062.54 0 .825-.354 1.221-.738l.199.207L207.292 21s-1.08-.47-1.79-1.267c-.565-.648-.907-1.208-.907-2.386V13.1c0-.5-.082-.943-.595-1.09v-.086l1.56-1.593c-.027-.03 2.044.235 3.32-2.331zM198.343 10.684c.54.295 1.023.883 1.023 1.974v5.6c0 1.032 1.251 1.946 2.104 2.447l.54-.589c-.768-.59-1.964-1.12-1.964-2.268V12.51c0-1.327-.597-2.034-1.22-2.299l-.483.472zm4.376 6.013c0 1.15 1.027 1.562 1.281 1.737L201.5 21s-2.39-1.18-2.39-2.681v-5.69c0-1.148-.626-1.561-1.11-1.885L200.5 8c.97.385 2.22 1.386 2.22 2.861v5.836zM198.328 4.395l1.266 1.275.533-.511-1.291-1.3-.508.536zM200.38 2L202 3.63 199.594 6 198 4.395 200.38 2zM186.338 10.62c.568.292 1.018.88 1.018 1.969v5.645c0 .97.82 1.764 1.838 2.44l.481-.528c-.763-.588-1.642-1.03-1.642-2.177v-5.525c0-1.413-.593-2.12-1.159-2.355l-.536.53zm4.893 0c.622.322 1.331.734 1.331 2.086v4.618c0 1.616 1.074 2.586 2.148 3.35l.508-.56c-.82-.556-1.977-1.408-1.977-2.82V12.41c0-1.41-.879-2.116-1.417-2.35l-.593.558zM188.488 8c.962.325 2.12 1.53 2.204 2.765L193.464 8s.822.53 1.5 1.295c.567.619.935 1.5.935 2.47v5.174c0 1.09.789 1.325 1.101 1.59L194.738 21s-.82-.5-1.525-1.296c-.567-.646-.907-1.383-.907-2.35v-4.53c0-1.412-.737-1.735-1.273-1.97l-.341.294v5.94c0 1.058.595 1.206.85 1.47L189.194 21s-2.094-1.208-2.094-2.706v-5.735c0-1.205-.564-1.528-1.1-1.881L188.488 8zM47.244 10.407c.35-.195.838-.195 1.595-.167v3.458s.269-.055.377-.083c.108-.026.351-.135.351-.135V9.5h-1c-.324 0-.703.08-.864.165-.297.138-.542.41-.542.712l.083.03zm1.567-4.447v1.153h.675V5.301l-.675.659zm.675-.96H52v4.83c0 2.497-1.378 3.813-3.404 4.17v-3.512s-.704 0-.867.027c-.865.165-.865.411-.973.796h-.054C46.271 10.9 46 10.24 46 9.637c0-1.372 1.11-2.47 2.596-2.524V5.878l.89-.878zM2.321 9.623a3.53 3.53 0 0 0 .492 2.336c.665 1.053 2.572 1.709 4.48 1.992 1.848.286 3.495.628 4.42 1.14.52.285 1.04.912.983 1.425h.057c.462-.37.666-1.852-.896-2.621-1.04-.513-2.687-.769-4.42-1.024-1.272-.2-2.225-.285-3.266-.912-.81-.484-1.503-.996-1.79-2.336h-.06m.78-1.224c1.359 1.308 3.238 1.85 5.319 2.135 2.86.4 5.692.998 5.577 3.903-.06 1.337-.956 2.163-1.446 2.563l-.087-.058c.059-.142.03-.37-.028-.54-1.04-3.134-10.634-.712-10.433-6.38.03-.797.435-1.596.78-2.022 0 0 .06.17.319.399"/>
        <path d="M6.402 1.936a8.256 8.256 0 0 1 2.434.674c1.09.526 1.956 1.171 2.32 1.405l.56-.761c-.477-.322-1.596-.997-2.546-1.377-.67-.265-1.93-.528-2.768 0v.059m-4.809 16.88l.056.088c.28-.352 1.566-.881 2.6-.822 3.076.147 4.615 2.111 5.34 2.845l.812-.734c-1.148-1.261-3.327-2.814-5.564-2.814-1.706 0-2.797.676-3.244 1.437m.894-15.152c.895-2.9 3.832-3.693 5.9-3.663 1.93.03 4.222 1.2 4.81 1.728l-2.013 2.638c-.672-.469-3.132-2.198-5.228-2.198-1.372 0-2.882.44-2.909 1.672-.057 1.788 4.278 1.904 6.375 2.404 5.452 1.317 5.732 3.955 5.536 6.18-.363 4.075-3.886 7.62-5.424 8.881 0 0-2.096-2.902-5.426-2.902-1.452 0-3.297.881-3.297 2.58 0 2.257 2.207 3.604 4.361 3.692 1.286.06 2.517-.616 2.74-.733l.112.265C7.24 24.56 6.374 25 5.06 25 2.85 25 0 23.476 0 20.427c0-3.752 3.382-5.597 5.872-5.597 3.829 0 5.422 2.198 5.983 2.754.083.06 1.928-1.553 2.097-3.399.391-4.455-4.306-4.689-5.649-4.924-2.32-.41-7.24-.996-5.816-5.597"/>
    </g>
</svg>
